<?xml version="1.0" standalone="no"?>
<!DOCTYPE svg PUBLIC "-//W3C//DTD SVG 1.1//EN" "http://www.w3.org/Graphics/SVG/1.1/DTD/svg11.dtd" >
<svg xmlns="http://www.w3.org/2000/svg" xmlns:xlink="http://www.w3.org/1999/xlink" version="1.1">
<metadata>
Created by FontForge 20170731 at Thu Jun 13 18:50:04 2013
 By Aleksey,,,
(c) 2013 koeiekat. All rights reserved.
</metadata>
<defs>
<font id="EASportsCoversSC-Bold" horiz-adv-x="1136" >
  <font-face 
    font-family="EA Sports Covers SC"
    font-weight="600"
    font-stretch="normal"
    units-per-em="2048"
    panose-1="2 1 7 0 0 0 2 0 0 4"
    ascent="1638"
    descent="-410"
    x-height="1200"
    cap-height="1500"
    bbox="-120 -301 2235 2032"
    underline-thickness="50"
    underline-position="-292"
    unicode-range="U+0020-F002"
  />
<missing-glyph horiz-adv-x="1024" 
d="M100 0v1434h824v-1434h-824zM150 50h724v1334h-724v-1334z" />
    <glyph glyph-name=".notdef" horiz-adv-x="1024" 
d="M100 0v1434h824v-1434h-824zM150 50h724v1334h-724v-1334z" />
    <glyph glyph-name=".null" horiz-adv-x="0" 
 />
    <glyph glyph-name="nonmarkingreturn" horiz-adv-x="508" 
 />
    <glyph glyph-name="space" unicode=" " horiz-adv-x="508" 
 />
    <glyph glyph-name="space" unicode="&#xa0;" horiz-adv-x="508" 
 />
    <glyph glyph-name="exclam" unicode="!" horiz-adv-x="510" 
d="M111 1500h288q36 0 36 -36v-1013q0 -36 -36 -36h-288q-36 0 -36 36v1013q0 36 36 36zM111 300h288q36 0 36 -36v-228q0 -36 -36 -36h-288q-36 0 -36 36v228q0 36 36 36z" />
    <glyph glyph-name="quotedbl" unicode="&#x22;" horiz-adv-x="992" 
d="M503 1440q-22 -75 -45.5 -132.5t-59.5 -106.5t-92.5 -97.5t-144.5 -109.5q-31 -17 -53 -17q-17 0 -29 11q-20 17 -20 48q0 14 4 30q50 183 76 366q4 38 14.5 53t40.5 15h259q30 0 45 -15q8 -9 8 -24q0 -10 -3 -21zM943 1440q-22 -75 -45.5 -132.5t-59.5 -106.5
t-92.5 -97.5t-144.5 -109.5q-31 -17 -53 -17q-17 0 -29 11q-20 17 -20 48q0 14 4 30q50 183 76 366q4 38 14.5 53t40.5 15h259q30 0 45 -15q8 -9 8 -24q0 -10 -3 -21z" />
    <glyph glyph-name="numbersign" unicode="#" horiz-adv-x="1176" 
d="M248 653l32 200h-146q-26 0 -26 23v6l24 141q4 30 34 30h146l27 167q5 30 35 30h180q26 0 26 -22q0 -4 -1 -8l-27 -167h167l26 167q6 30 36 30h180q26 0 26 -22q0 -4 -1 -8l-27 -167h147q26 0 26 -23v-7l-23 -141q-5 -29 -35 -29h-147l-32 -200h147q26 0 26 -23v-7
l-23 -141q-5 -29 -35 -29h-147l-27 -173q-5 -30 -35 -30h-180q-26 0 -26 23v7l28 173h-167l-27 -173q-5 -30 -34 -30h-181q-26 0 -26 23v7l28 173h-146q-26 0 -26 23v6l24 141q4 30 34 30h146zM520 853l-32 -200h167l32 200h-167z" />
    <glyph glyph-name="dollar" unicode="$" horiz-adv-x="1115" 
d="M738 2v-165q0 -36 -36 -36h-288q-36 0 -36 36v163h-252q-36 0 -36 36v228q0 36 36 36h474q80 0 80 80v125q0 74 -65 90l-343 83q-71 13 -125 67l-5 5q-18 19 -31 40q-36 57 -36 129v243q0 140 99 239q86 86 204 97v182q0 36 36 36h288q36 0 36 -36v-180h221q36 0 36 -36
v-228q0 -36 -36 -36h-444q-80 0 -80 -80v-85q0 -74 65 -90l343 -83q71 -13 125 -67l5 -5q18 -19 31 -40q36 -57 36 -129v-283q0 -140 -99 -239q-86 -86 -203 -97z" />
    <glyph glyph-name="percent" unicode="%" horiz-adv-x="1514" 
d="M500 36q-18 -36 -53 -36h-129q-24 0 -24 16q0 8 6 20l699 1428q18 36 54 36h129q23 0 23 -16q0 -8 -6 -20zM577 896q0 -73 -51.5 -124.5t-124.5 -51.5h-165q-73 0 -124.5 51.5t-51.5 124.5v428q0 73 51.5 124.5t124.5 51.5h165q73 0 124.5 -51.5t51.5 -124.5v-428z
M247 923q0 -47 47 -47h49q47 0 47 47v374q0 47 -47 47h-49q-47 0 -47 -47v-374zM1439 176q0 -73 -51.5 -124.5t-124.5 -51.5h-165q-73 0 -124.5 51.5t-51.5 124.5v428q0 73 51.5 124.5t124.5 51.5h165q73 0 124.5 -51.5t51.5 -124.5v-428zM1109 203q0 -47 47 -47h49
q47 0 47 47v374q0 47 -47 47h-49q-47 0 -47 -47v-374z" />
    <glyph glyph-name="ampersand" unicode="&#x26;" horiz-adv-x="1387" 
d="M719 320l-229 320q-31 -25 -50.5 -64.5t-19.5 -82.5q0 -90 51.5 -141.5t147.5 -51.5q37 0 77 7zM806 1191q-20 4 -42 6q-40 3 -82 3q-71 0 -103.5 -26t-32.5 -75q8 -45 37.5 -86t71.5 -99l227 -318v168q0 36 36 36h287q36 0 36 -36v-127q0 -52 -2.5 -92.5t-12 -83
t-44.5 -137.5q3 -24 27 -24h82q36 0 36 -36v-228q0 -36 -36 -36h-264q-66 0 -126 68q-64 -33 -156 -50.5t-178 -17.5q-271 0 -401 155q-106 127 -106 339q0 139 79 254q54 78 128 126q22 13 44 23q-125 175 -125 264q0 154 114 246.5t311 92.5q89 0 195 -14
q80 -13 126.5 -29t74 -33t43.5 -32q26 -21 26 -44q0 -7 -2 -14l-51 -190q-10 -25 -27 -25q-9 0 -20 8q-31 21 -98 45q-36 12 -72 19z" />
    <glyph glyph-name="quotesingle" unicode="'" horiz-adv-x="552" 
d="M503 1440q-22 -75 -45.5 -132.5t-59.5 -106.5t-92.5 -97.5t-144.5 -109.5q-31 -17 -53 -17q-17 0 -29 11q-20 17 -20 48q0 14 4 30q50 183 76 366q4 38 14.5 53t40.5 15h259q30 0 45 -15q8 -9 8 -24q0 -10 -3 -21z" />
    <glyph glyph-name="parenleft" unicode="(" horiz-adv-x="711" 
d="M60 750q0 144 23.5 277.5t63.5 247t89 204.5t111 161q17 19 39 19q16 0 34 -10l228 -103q23 -13 23 -27q0 -11 -13 -23q-37 -36 -78 -115t-77 -182.5t-59.5 -221t-23.5 -227.5t23.5 -227.5t59.5 -221t77 -182.5t78 -115q13 -12 13 -23q0 -14 -23 -27l-228 -103
q-18 -10 -34 -10q-22 0 -39 19q-62 70 -111 161t-89 204.5t-63.5 247t-23.5 277.5z" />
    <glyph glyph-name="parenright" unicode=")" horiz-adv-x="711" 
d="M627.5 472.5q-23.5 -133.5 -63.5 -247t-89 -204.5t-111 -161q-17 -19 -39 -19q-16 0 -34 10l-228 103q-23 13 -23 27q0 11 13 23q37 36 78 115t77 182.5t59.5 221t23.5 227.5t-23.5 227.5t-59.5 221t-77 182.5t-78 115q-13 12 -13 23q0 14 23 27l228 103q18 10 34 10
q22 0 39 -19q62 -70 111 -161t89 -204.5t63.5 -247t23.5 -277.5t-23.5 -277.5z" />
    <glyph glyph-name="asterisk" unicode="*" horiz-adv-x="873" 
d="M348 1235l-21 211q-1 7 -1 12q0 18 7 28q9 14 33 14h140q21 0 30 -14q7 -10 7 -28q0 -5 -1 -12l-18 -211l195 86q17 8 30 8q5 0 10 -1q16 -5 23 -27l44 -134q2 -7 2 -14q0 -11 -6 -18q-11 -13 -37 -19l-206 -48l141 -158q18 -19 19 -36v-2q0 -16 -19 -29l-113 -82
q-11 -8 -22 -8q-5 0 -10 2q-16 6 -29 29l-109 181l-107 -183q-13 -23 -28 -29q-5 -2 -10 -2q-12 0 -26 10l-113 82q-16 12 -16 28v2q1 16 19 35l138 160l-207 45q-26 5 -36 18q-6 7 -6 18q0 8 3 18l43 133q6 20 22 24q4 1 9 1q13 0 31 -8z" />
    <glyph glyph-name="plus" unicode="+" horiz-adv-x="1150" 
d="M455 630h-350q-30 0 -30 30v180q0 30 30 30h350v350q0 30 30 30h180q30 0 30 -30v-350h350q30 0 30 -30v-180q0 -30 -30 -30h-350v-350q0 -30 -30 -30h-180q-30 0 -30 30v350z" />
    <glyph glyph-name="comma" unicode="," horiz-adv-x="509" 
d="M431 240q-22 -75 -45.5 -132.5t-59.5 -106.5t-92.5 -97.5t-144.5 -109.5q-31 -17 -53 -17q-17 0 -29 11q-20 17 -20 48q0 14 4 30q50 183 76 366q4 38 14.5 53t40.5 15h259q30 0 45 -15q8 -9 8 -24q0 -10 -3 -21z" />
    <glyph glyph-name="hyphen" unicode="-" horiz-adv-x="1150" 
d="M105 630q-30 0 -30 30v180q0 30 30 30h940q30 0 30 -30v-180q0 -30 -30 -30h-940z" />
    <glyph glyph-name="hyphen" unicode="&#xad;" horiz-adv-x="1150" 
d="M105 630q-30 0 -30 30v180q0 30 30 30h940q30 0 30 -30v-180q0 -30 -30 -30h-940z" />
    <glyph glyph-name="period" unicode="." horiz-adv-x="510" 
d="M111 300h288q36 0 36 -36v-228q0 -36 -36 -36h-288q-36 0 -36 36v228q0 36 36 36z" />
    <glyph glyph-name="slash" unicode="/" horiz-adv-x="922" 
d="M413 36q-12 -36 -47 -36h-289q-27 0 -27 20q0 7 3 16l456 1428q12 36 48 36h289q26 0 26 -20q0 -7 -3 -16z" />
    <glyph glyph-name="zero" unicode="0" horiz-adv-x="1235" 
d="M1160 338q0 -140 -99 -239t-239 -99h-319q-140 0 -239 99t-99 239v824q0 140 99 239t239 99h319q140 0 239 -99t99 -239v-824zM525 390q0 -90 90 -90h95q90 0 90 90v720q0 90 -90 90h-95q-90 0 -90 -90v-720z" />
    <glyph glyph-name="one" unicode="1" horiz-adv-x="1235" 
d="M776 1200h-153q-36 0 -36 36v156q0 36 36 72l177 36h325q35 0 35 -36v-1428q0 -36 -35 -36h-289q-36 0 -36 36v1140q0 24 -24 24z" />
    <glyph glyph-name="two" unicode="2" horiz-adv-x="1235" 
d="M1160 1162v-182q0 -60 -14.5 -100t-35.5 -60l-537 -520h531q36 0 36 -36v-228q0 -36 -36 -36h-863q-36 0 -36 36v350q0 36 37 72l520 504q38 36 38 72v130q0 36 -36 36h-464q-36 0 -36 36v228q0 36 36 36h522q140 0 239 -99t99 -239z" />
    <glyph glyph-name="three" unicode="3" horiz-adv-x="1235" 
d="M822 1500q140 0 239 -99t99 -239v-96q0 -140 -99 -239q-52 -52 -116 -77q64 -25 116 -77q99 -99 99 -239v-96q0 -140 -99 -239t-239 -99h-511q-36 0 -36 36v228q0 36 36 36h465q24 0 24 24v252q0 24 -24 24h-360q-36 0 -36 36v228q0 36 36 36h360q24 0 24 24v252
q0 24 -24 24h-465q-36 0 -36 36v228q0 36 36 36h511z" />
    <glyph glyph-name="four" unicode="4" horiz-adv-x="1235" 
d="M472 1500h492q41 0 41 -36v-840q0 -24 24 -24h95q36 0 36 -36v-228q0 -36 -36 -36h-95q-29 0 -29 -24v-240q0 -36 -36 -36h-283q-36 0 -36 36v240q0 24 -24 24h-510q-36 0 -36 36v200q0 36 14 72l333 856q14 36 50 36zM423 600h198q24 0 24 24v545z" />
    <glyph glyph-name="five" unicode="5" horiz-adv-x="1235" 
d="M1160 338q0 -140 -99 -239t-239 -99h-506q-36 0 -36 36v228q0 36 36 36h404q80 0 80 80v177q0 80 -80 80h-404q-36 0 -36 36v791q0 36 36 36h808q36 0 36 -36v-228q0 -36 -36 -36h-460q-24 0 -24 -24v-215q0 -24 24 -24h158q140 0 239 -99t99 -239v-261z" />
    <glyph glyph-name="six" unicode="6" horiz-adv-x="1235" 
d="M535 676v-341q0 -35 36 -35h193q36 0 36 36v328q0 36 -36 36h-205q-24 0 -24 -24zM514 0q-140 0 -239 99t-99 239h1l-1 824q0 140 99 239t239 99h515q36 0 36 -36v-228q0 -36 -36 -36h-470q-23 0 -23 -24v-152q0 -24 23 -24h263q140 0 239 -99t99 -239h-1l1 -324
q0 -140 -99 -239t-239 -99h-308z" />
    <glyph glyph-name="seven" unicode="7" horiz-adv-x="1235" 
d="M296 1500h828q36 0 36 -36v-348q0 -181 -140 -336q-180 -215 -180 -490v-254q0 -36 -36 -36h-288q-36 0 -36 36v354q0 275 200 490q120 155 120 296q0 24 -24 24h-480q-36 0 -36 36v228q0 36 36 36z" />
    <glyph glyph-name="eight" unicode="8" horiz-adv-x="1235" 
d="M800 952v253q0 24 -24 24h-216q-24 0 -24 -24v-253q0 -24 24 -24h216q24 0 24 24zM800 295v338q0 24 -24 24h-216q-24 0 -24 -24v-338q0 -24 24 -24h216q24 0 24 24zM1063 799q97 -76 97 -173v-288q0 -140 -99 -239t-239 -99h-308q-140 0 -239 99t-99 239v288
q0 97 97 173q-97 85 -97 182v181q0 140 99 239t239 99h308q140 0 239 -99t99 -239v-181q0 -96 -97 -182z" />
    <glyph glyph-name="nine" unicode="9" horiz-adv-x="1235" 
d="M801 824v341q0 35 -36 35h-193q-36 0 -36 -36v-328q0 -36 36 -36h205q24 0 24 24zM822 1500q140 0 239 -99t99 -239h-1l1 -824q0 -140 -99 -239t-239 -99h-515q-36 0 -36 36v228q0 36 36 36h470q23 0 23 24v152q0 24 -23 24h-263q-140 0 -239 99t-99 239h1l-1 324
q0 140 99 239t239 99h308z" />
    <glyph glyph-name="colon" unicode=":" horiz-adv-x="510" 
d="M111 900h288q36 0 36 -36v-228q0 -36 -36 -36h-288q-36 0 -36 36v228q0 36 36 36zM111 300h288q36 0 36 -36v-228q0 -36 -36 -36h-288q-36 0 -36 36v228q0 36 36 36z" />
    <glyph glyph-name="semicolon" unicode=";" horiz-adv-x="509" 
d="M431 240q-22 -75 -45.5 -132.5t-59.5 -106.5t-92.5 -97.5t-144.5 -109.5q-31 -17 -53 -17q-17 0 -29 11q-20 17 -20 48q0 14 4 30q50 183 76 366q4 38 14.5 53t40.5 15h259q30 0 45 -15q8 -9 8 -24q0 -10 -3 -21zM110 900h288q36 0 36 -36v-228q0 -36 -36 -36h-288
q-36 0 -36 36v228q0 36 36 36z" />
    <glyph glyph-name="semicolon" unicode="&#x37e;" horiz-adv-x="509" 
d="M431 240q-22 -75 -45.5 -132.5t-59.5 -106.5t-92.5 -97.5t-144.5 -109.5q-31 -17 -53 -17q-17 0 -29 11q-20 17 -20 48q0 14 4 30q50 183 76 366q4 38 14.5 53t40.5 15h259q30 0 45 -15q8 -9 8 -24q0 -10 -3 -21zM110 900h288q36 0 36 -36v-228q0 -36 -36 -36h-288
q-36 0 -36 36v228q0 36 36 36z" />
    <glyph glyph-name="less" unicode="&#x3c;" horiz-adv-x="1006" 
d="M75 813q0 47 16.5 62.5t51.5 29.5l704 279q33 14 55 14h6q23 -2 23 -47v-149q0 -47 -22.5 -62.5t-63.5 -27.5l-405 -162l405 -162q41 -12 63.5 -27.5t22.5 -62.5v-149q0 -45 -23 -47h-6q-22 0 -55 14l-704 279q-35 14 -51.5 29.5t-16.5 62.5v126z" />
    <glyph glyph-name="equal" unicode="=" horiz-adv-x="1150" 
d="M105 900q-30 0 -30 30v180q0 30 30 30h940q30 0 30 -30v-180q0 -30 -30 -30h-940zM105 360q-30 0 -30 30v180q0 30 30 30h940q30 0 30 -30v-180q0 -30 -30 -30h-940z" />
    <glyph glyph-name="greater" unicode="&#x3e;" horiz-adv-x="1006" 
d="M931 687q0 -47 -16.5 -62.5t-51.5 -29.5l-704 -279q-33 -14 -55 -14h-5q-24 2 -24 47v149q0 47 22.5 62.5t63.5 27.5l405 162l-405 162q-41 12 -63.5 27.5t-22.5 62.5v149q0 45 24 47h5q22 0 55 -14l704 -279q35 -14 51.5 -29.5t16.5 -62.5v-126z" />
    <glyph glyph-name="question" unicode="?" 
d="M424 300h288q36 0 36 -36v-228q0 -36 -36 -36h-288q-36 0 -36 36v228q0 36 36 36zM748 601v-150q0 -36 -36 -36h-288q-36 0 -36 36v413q0 36 36 36h187q90 0 90 90v120q0 90 -90 90h-86q-90 0 -90 -90v-50q0 -36 -36 -36h-288q-36 0 -36 36v102q0 140 99 239t239 99h310
q140 0 239 -99t99 -239v-224q0 -140 -99 -239q-90 -90 -214 -98z" />
    <glyph glyph-name="at" unicode="@" horiz-adv-x="1618" 
d="M417 740q0 223 71.5 328.5t192.5 105.5q98 0 153.5 -28.5t86.5 -84.5v39q0 21 9 35t28 14h157q41 0 48.5 -12t7.5 -37v-508q0 -37 21.5 -70.5t68.5 -33.5h21q24 0 24 24v724q0 24 -24 24h-946q-24 0 -24 -24v-972q0 -24 24 -24h769q36 0 36 -36v-168q0 -36 -36 -36h-994
q-36 0 -36 36v1428q0 36 36 36h1396q36 0 36 -36v-1096q0 -36 -36 -36h-304q-202 0 -274 113q-33 -51 -96.5 -85t-159.5 -34q-51 0 -97 22.5t-82 73t-56.5 129t-20.5 189.5zM898 861q0 18 -5 43.5t-17.5 47t-34 37t-53.5 15.5q-60 0 -79.5 -47t-19.5 -119v-172
q0 -31 5.5 -61.5t17.5 -55t31.5 -40t50.5 -15.5q28 0 48.5 15.5t33 36t17.5 43t5 38.5v234z" />
    <glyph glyph-name="A" unicode="A" horiz-adv-x="1210" 
d="M605 1178l-90 -548h180zM470 355l-51 -319q-6 -36 -42 -36h-301q-30 0 -30 25q0 5 1 11l274 1428q7 36 43 36h482q36 0 43 -36l274 -1428q1 -6 1 -11q0 -25 -30 -25h-301q-36 0 -42 36l-51 319h-270z" />
    <glyph glyph-name="B" unicode="B" horiz-adv-x="1160" 
d="M435 1176v-252q0 -24 24 -24h161q70 0 70 70v160q0 70 -70 70h-161q-24 0 -24 -24zM435 576v-252q0 -24 24 -24h171q95 0 95 80v140q0 80 -80 80h-186q-24 0 -24 -24zM712 1500q140 0 239 -99t99 -239v-114q0 -140 -99 -239q-10 -10 -20 -18v-1q29 -19 55 -44
q99 -98 99 -241v-167q0 -140 -99 -239t-239 -99h-636q-36 0 -36 36v1428q0 36 36 36h601z" />
    <glyph glyph-name="C" unicode="C" horiz-adv-x="1100" 
d="M435 324q1 -24 25 -24h529q36 0 36 -36v-228q0 -36 -36 -36h-576q-140 0 -239 99t-99 239v824q0 140 99 239t239 99h576q36 0 36 -36v-228q0 -36 -36 -36h-529q-24 0 -25 -24v-852z" />
    <glyph glyph-name="D" unicode="D" horiz-adv-x="1145" 
d="M1070 338q0 -140 -99 -239t-239 -99h-621q-36 0 -36 36v1428q0 36 36 36h621q140 0 239 -99t99 -239v-824zM435 324q0 -24 24 -24h181q70 0 70 70v760q0 70 -70 70h-181q-24 0 -24 -24v-852z" />
    <glyph glyph-name="E" unicode="E" horiz-adv-x="1075" 
d="M75 338v1126q0 36 36 36h828q36 0 36 -36v-228q0 -36 -36 -36h-480q-24 0 -24 -24v-252q0 -24 24 -24h400q36 0 36 -36v-228q0 -36 -36 -36h-400q-24 0 -24 -24v-146q0 -130 130 -130h399q36 0 36 -36v-228q0 -36 -36 -36h-551q-140 0 -239 99t-99 239z" />
    <glyph glyph-name="F" unicode="F" horiz-adv-x="1150" 
d="M75 36v1428q0 36 36 36h963q36 0 36 -36v-228q0 -36 -36 -36h-615q-24 0 -24 -24v-252q0 -24 24 -24h465q36 0 36 -36v-228q0 -36 -36 -36h-465q-24 0 -24 -24v-540q0 -36 -36 -36h-288q-36 0 -36 36z" />
    <glyph glyph-name="G" unicode="G" horiz-adv-x="1135" 
d="M413 0q-140 0 -239 99t-99 239v824q0 140 99 239t239 99h561q36 0 36 -36v-228q0 -36 -36 -36h-515q-24 0 -24 -24v-852q0 -24 24 -24h211q30 0 30 24v480q0 36 36 36h288q36 0 36 -36v-768q0 -36 -36 -36h-611z" />
    <glyph glyph-name="H" unicode="H" horiz-adv-x="1238" 
d="M459 600q-24 0 -24 -24v-540q0 -36 -35 -36h-289q-36 0 -36 36v1428q0 36 36 36h289q35 0 35 -36v-540q0 -24 24 -24h320q24 0 24 24v540q0 36 35 36h289q36 0 36 -36v-1428q0 -36 -36 -36h-289q-35 0 -35 36v540q0 24 -24 24h-320z" />
    <glyph glyph-name="I" unicode="I" horiz-adv-x="510" 
d="M435 36q0 -36 -35 -36h-289q-36 0 -36 36v1428q0 36 36 36h289q35 0 35 -36v-1428z" />
    <glyph glyph-name="J" unicode="J" horiz-adv-x="840" 
d="M427 0h-351q-36 0 -36 36v228q0 36 36 36h293q36 0 36 36v1128q0 36 36 36h293q31 0 31 -36v-1126q0 -140 -99 -239t-239 -99z" />
    <glyph glyph-name="K" unicode="K" horiz-adv-x="1226" 
d="M111 0q-36 0 -36 36v1428q0 36 36 36h289q35 0 35 -36v-540q0 -24 24 -24h101q36 0 55 50l209 514q14 36 50 36h276q26 0 26 -19q0 -7 -4 -17l-228 -562q34 -21 65 -52q96 -96 96 -232v-582q0 -36 -36 -36h-288q-36 0 -36 36v474q0 90 -90 90h-196q-24 0 -24 -24v-540
q0 -36 -35 -36h-289z" />
    <glyph glyph-name="L" unicode="L" horiz-adv-x="1185" 
d="M174 99q-99 99 -99 239v1126q0 36 31 36h293q36 0 36 -36v-1128q0 -36 36 -36h638q36 0 36 -36v-228q0 -36 -36 -36h-696q-140 0 -239 99z" />
    <glyph glyph-name="M" unicode="M" horiz-adv-x="1686" 
d="M716 0q-36 0 -44 36l-237 1006v-1006q0 -36 -35 -36h-289q-36 0 -36 36v1428q0 36 36 36h449q36 0 44 -36l239 -1013l239 1013q8 36 44 36h449q36 0 36 -36v-1428q0 -36 -36 -36h-289q-35 0 -35 36v1006l-237 -1006q-8 -36 -44 -36h-254z" />
    <glyph glyph-name="N" unicode="N" horiz-adv-x="1299" 
d="M864 606v858q0 36 36 36h289q35 0 35 -36v-1428q0 -36 -35 -36h-414q-36 0 -48 36l-292 864v-864q0 -36 -35 -36h-289q-36 0 -36 36v1428q0 36 36 36h416q36 0 48 -36z" />
    <glyph glyph-name="O" unicode="O" 
d="M1061 338q0 -140 -99 -239t-239 -99h-310q-140 0 -239 99t-99 239v824q0 140 99 239t239 99h310q140 0 239 -99t99 -239v-824zM435 390q0 -90 90 -90h86q90 0 90 90v720q0 90 -90 90h-86q-90 0 -90 -90v-720z" />
    <glyph glyph-name="P" unicode="P" horiz-adv-x="1125" 
d="M435 1191v-377q0 -24 24 -24h161q70 0 70 70v285q0 70 -70 70h-161q-24 0 -24 -24zM1050 838q0 -140 -99 -239t-239 -99h-253q-24 0 -24 -24v-440q0 -36 -36 -36h-288q-36 0 -36 36v1428q0 36 36 36h601q140 0 239 -99t99 -239v-324z" />
    <glyph glyph-name="Q" unicode="Q" horiz-adv-x="1186" 
d="M435 390q0 -90 90 -90h86q90 0 90 90v720q0 90 -90 90h-86q-90 0 -90 -90v-720zM875 35q-69 -35 -152 -35h-310q-140 0 -239 99t-99 239v824q0 140 99 239t239 99h310q140 0 239 -99t99 -239v-824q0 -18 -2 -36l29 -19q11 -7 21 -17q37 -38 37 -90q0 -53 -37 -90l-1 -1
l-49 -50l-2 -2q-37 -37 -90 -37t-90 37z" />
    <glyph glyph-name="R" unicode="R" horiz-adv-x="1120" 
d="M435 1176v-252q0 -24 24 -24h151q70 0 70 70v160q0 70 -70 70h-151q-24 0 -24 -24zM961 751q84 -94 84 -223v-492q0 -36 -36 -36h-293q-36 0 -36 36v484q0 80 -80 80h-145q-20 0 -20 -24v-540q0 -36 -36 -36h-288q-36 0 -36 36v1428q0 36 36 36h591q140 0 239 -99
t99 -239v-192q0 -125 -79 -218v-1z" />
    <glyph glyph-name="S" unicode="S" horiz-adv-x="1115" 
d="M1004 750q36 -57 36 -129v-283q0 -140 -99 -239t-239 -99h-576q-36 0 -36 36v228q0 36 36 36h474q80 0 80 80v125q0 74 -65 90l-343 83q-71 13 -125 67l-5 5q-18 19 -31 40q-36 57 -36 129v243q0 140 99 239t239 99h546q36 0 36 -36v-228q0 -36 -36 -36h-444
q-80 0 -80 -80v-85q0 -74 65 -90l343 -83q71 -13 125 -67l5 -5q18 -19 31 -40z" />
    <glyph glyph-name="T" unicode="T" horiz-adv-x="1074" 
d="M334 1200h-258q-36 0 -36 35v229q0 36 36 36h922q36 0 36 -36v-229q0 -35 -36 -35h-256q-24 0 -24 -24v-1140q0 -36 -35 -36h-289q-36 0 -36 36v1140q0 24 -24 24z" />
    <glyph glyph-name="U" unicode="U" 
d="M435 1464v-1074q0 -90 90 -90h86q90 0 90 90v1074q0 36 36 36h288q36 0 36 -36v-1126q0 -140 -99 -239t-239 -99h-305q-145 0 -244 99t-99 239v1126q0 36 36 36h288q36 0 36 -36z" />
    <glyph glyph-name="V" unicode="V" horiz-adv-x="1210" 
d="M605 322l216 1142q6 36 42 36h271q30 0 30 -25q0 -5 -1 -11l-304 -1428q-7 -36 -43 -36h-422q-36 0 -43 36l-304 1428q-1 6 -1 11q0 25 30 25h271q36 0 42 -36z" />
    <glyph glyph-name="W" unicode="W" horiz-adv-x="1752" 
d="M876 1104l-154 -1068q-7 -36 -43 -36h-395q-36 0 -43 36l-194 1428q-1 6 -1 11q0 25 30 25h281q36 0 42 -36l131 -1142l150 1142q6 36 42 36h308q36 0 42 -36l150 -1142l131 1142q6 36 42 36h281q30 0 30 -25q0 -5 -1 -11l-194 -1428q-7 -36 -43 -36h-395q-36 0 -43 36z
" />
    <glyph glyph-name="X" unicode="X" horiz-adv-x="1316" 
d="M861 750l407 -714q8 -13 8 -22q0 -14 -23 -14h-334q-36 0 -56 36l-205 359l-205 -359q-20 -36 -56 -36h-334q-23 0 -23 14q0 9 8 22l408 714l-408 714q-8 13 -8 22q0 14 23 14h334q36 0 56 -36l205 -359l205 359q20 36 56 36h334q23 0 23 -14q0 -9 -8 -22z" />
    <glyph glyph-name="Y" unicode="Y" horiz-adv-x="1364" 
d="M862 668v-632q0 -36 -35 -36h-289q-36 0 -36 36v632l-454 796q-8 13 -8 22q0 14 23 14h334q36 0 56 -36l229 -402l229 402q20 36 56 36h334q23 0 23 -14q0 -9 -8 -22z" />
    <glyph glyph-name="Z" unicode="Z" horiz-adv-x="1235" 
d="M111 1500h1013q36 0 36 -36v-354q0 -36 -35 -72l-730 -738h729q36 0 36 -36v-228q0 -36 -36 -36h-1013q-36 0 -36 36v417q0 36 35 72l667 675h-666q-36 0 -36 36v228q0 36 36 36z" />
    <glyph glyph-name="bracketleft" unicode="[" horiz-adv-x="722" 
d="M75 1596q0 36 36 36h515q36 0 36 -36v-228q0 -36 -36 -36h-167q-24 0 -24 -24v-1116q0 -24 24 -24h167q36 0 36 -36v-228q0 -36 -36 -36h-515q-36 0 -36 36v1692z" />
    <glyph glyph-name="backslash" unicode="\" horiz-adv-x="920" 
d="M52 1464q-3 9 -3 16q0 20 26 20h289q36 0 48 -36l456 -1428q3 -9 3 -16q0 -20 -27 -20h-289q-35 0 -47 36z" />
    <glyph glyph-name="bracketright" unicode="]" horiz-adv-x="722" 
d="M647 -96q0 -36 -36 -36h-515q-36 0 -36 36v228q0 36 36 36h167q24 0 24 24v1116q0 24 -24 24h-167q-36 0 -36 36v228q0 36 36 36h515q36 0 36 -36v-1692z" />
    <glyph glyph-name="asciicircum" unicode="^" horiz-adv-x="1100" 
d="M550 1157l-198 -477q-16 -36 -52 -36h-200q-25 0 -25 18q0 7 4 18l326 784q15 36 51 36h188q36 0 51 -36l326 -784q4 -11 4 -18q0 -18 -25 -18h-200q-36 0 -52 36z" />
    <glyph glyph-name="underscore" unicode="_" horiz-adv-x="1040" 
d="M30 -301q-30 0 -30 30v180q0 30 30 30h980q30 0 30 -30v-180q0 -30 -30 -30h-980z" />
    <glyph glyph-name="grave" unicode="`" horiz-adv-x="526" 
d="M510 1321q16 -22 16 -37q0 -4 -1 -8q-7 -16 -40 -16h-120q-27 0 -46.5 15t-33.5 30l-260 248q-25 24 -25 41q0 3 1 6q5 18 52 18h211q27 0 40.5 -13.5t29.5 -35.5z" />
    <glyph glyph-name="a" unicode="a" horiz-adv-x="1210" 
d="M605 942l-90 -438h180zM470 284l-51 -248q-6 -36 -42 -36h-301q-30 0 -30 25q0 5 1 11l274 1128q7 36 43 36h482q36 0 43 -36l274 -1128q1 -6 1 -11q0 -25 -30 -25h-301q-36 0 -42 36l-51 248h-270z" />
    <glyph glyph-name="b" unicode="b" horiz-adv-x="1160" 
d="M435 936v-192q0 -24 24 -24h161q70 0 70 70v100q0 70 -70 70h-161q-24 0 -24 -24zM435 456v-192q0 -24 24 -24h171q95 0 95 70v100q0 70 -80 70h-186q-24 0 -24 -24zM712 1200q140 0 239 -79t99 -191v-92q0 -112 -99 -191q-10 -8 -20 -14v-1q29 -15 55 -35
q99 -79 99 -193v-134q0 -112 -99 -191t-239 -79h-636q-36 0 -36 36v1128q0 36 36 36h601z" />
    <glyph glyph-name="c" unicode="c" horiz-adv-x="1100" 
d="M435 264q1 -24 25 -24h529q36 0 36 -36v-168q0 -36 -36 -36h-576q-140 0 -239 79t-99 191v660q0 112 99 191t239 79h576q36 0 36 -36v-168q0 -36 -36 -36h-529q-24 0 -25 -24v-672z" />
    <glyph glyph-name="d" unicode="d" horiz-adv-x="1145" 
d="M1070 270q0 -112 -99 -191t-239 -79h-621q-36 0 -36 36v1128q0 36 36 36h621q140 0 239 -79t99 -191v-660zM435 264q0 -24 24 -24h181q70 0 70 70v580q0 70 -70 70h-181q-24 0 -24 -24v-672z" />
    <glyph glyph-name="e" unicode="e" horiz-adv-x="1075" 
d="M75 270v894q0 36 36 36h828q36 0 36 -36v-168q0 -36 -36 -36h-480q-24 0 -24 -24v-192q0 -24 24 -24h400q36 0 36 -36v-168q0 -36 -36 -36h-400q-24 0 -24 -24v-86q0 -130 130 -130h399q36 0 36 -36v-168q0 -36 -36 -36h-551q-140 0 -239 79t-99 191z" />
    <glyph glyph-name="f" unicode="f" horiz-adv-x="1150" 
d="M75 36v1128q0 36 36 36h963q36 0 36 -36v-168q0 -36 -36 -36h-615q-24 0 -24 -24v-192q0 -24 24 -24h465q36 0 36 -36v-168q0 -36 -36 -36h-465q-24 0 -24 -24v-420q0 -36 -36 -36h-288q-36 0 -36 36z" />
    <glyph glyph-name="g" unicode="g" horiz-adv-x="1135" 
d="M413 0q-140 0 -239 79t-99 191v660q0 112 99 191t239 79h561q36 0 36 -36v-168q0 -36 -36 -36h-515q-24 0 -24 -24v-672q0 -24 24 -24h211q30 0 30 24v372q0 36 36 36h288q36 0 36 -36v-600q0 -36 -36 -36h-611z" />
    <glyph glyph-name="h" unicode="h" horiz-adv-x="1238" 
d="M459 480q-24 0 -24 -24v-420q0 -36 -35 -36h-289q-36 0 -36 36v1128q0 36 36 36h289q35 0 35 -36v-420q0 -24 24 -24h320q24 0 24 24v420q0 36 35 36h289q36 0 36 -36v-1128q0 -36 -36 -36h-289q-35 0 -35 36v420q0 24 -24 24h-320z" />
    <glyph glyph-name="i" unicode="i" horiz-adv-x="510" 
d="M435 36q0 -36 -35 -36h-289q-36 0 -36 36v1128q0 36 36 36h289q35 0 35 -36v-1128z" />
    <glyph glyph-name="j" unicode="j" horiz-adv-x="840" 
d="M427 0h-351q-36 0 -36 36v168q0 36 36 36h293q36 0 36 36v888q0 36 36 36h293q31 0 31 -36v-894q0 -112 -99 -191t-239 -79z" />
    <glyph glyph-name="k" unicode="k" horiz-adv-x="1226" 
d="M111 0q-36 0 -36 36v1128q0 36 36 36h289q35 0 35 -36v-420q0 -24 24 -24h101q36 0 55 40l209 404q14 36 50 36h276q26 0 26 -19q0 -7 -4 -17l-228 -442q34 -17 65 -42q96 -77 96 -186v-458q0 -36 -36 -36h-288q-36 0 -36 36v372q0 72 -90 72h-196q-24 0 -24 -24v-420
q0 -36 -35 -36h-289z" />
    <glyph glyph-name="l" unicode="l" horiz-adv-x="1185" 
d="M174 79q-99 79 -99 191v894q0 36 31 36h293q36 0 36 -36v-888q0 -36 36 -36h638q36 0 36 -36v-168q0 -36 -36 -36h-696q-140 0 -239 79z" />
    <glyph glyph-name="m" unicode="m" horiz-adv-x="1686" 
d="M716 0q-36 0 -44 36l-237 798v-798q0 -36 -35 -36h-289q-36 0 -36 36v1128q0 36 36 36h449q36 0 44 -36l239 -803l239 803q8 36 44 36h449q36 0 36 -36v-1128q0 -36 -36 -36h-289q-35 0 -35 36v798l-237 -798q-8 -36 -44 -36h-254z" />
    <glyph glyph-name="n" unicode="n" horiz-adv-x="1299" 
d="M864 485v679q0 36 36 36h289q35 0 35 -36v-1128q0 -36 -35 -36h-414q-36 0 -48 36l-292 684v-684q0 -36 -35 -36h-289q-36 0 -36 36v1128q0 36 36 36h416q36 0 48 -36z" />
    <glyph glyph-name="o" unicode="o" 
d="M1061 270q0 -112 -99 -191t-239 -79h-310q-140 0 -239 79t-99 191v660q0 112 99 191t239 79h310q140 0 239 -79t99 -191v-660zM435 330q0 -90 90 -90h86q90 0 90 90v540q0 90 -90 90h-86q-90 0 -90 -90v-540z" />
    <glyph glyph-name="p" unicode="p" horiz-adv-x="1125" 
d="M435 948v-292q0 -24 24 -24h161q70 0 70 70v200q0 70 -70 70h-161q-24 0 -24 -24zM1050 670q0 -112 -99 -191t-239 -79h-253q-24 0 -24 -24v-340q0 -36 -36 -36h-288q-36 0 -36 36v1128q0 36 36 36h601q140 0 239 -79t99 -191v-260z" />
    <glyph glyph-name="q" unicode="q" horiz-adv-x="1186" 
d="M435 330q0 -90 90 -90h86q90 0 90 90v540q0 90 -90 90h-86q-90 0 -90 -90v-540zM875 28q-69 -28 -152 -28h-310q-140 0 -239 79t-99 191v660q0 112 99 191t239 79h310q140 0 239 -79t99 -191v-660q0 -14 -2 -28l29 -16q11 -5 21 -13q37 -31 37 -72q0 -43 -37 -72l-1 -1
l-49 -40l-2 -2q-37 -29 -90 -29t-90 29z" />
    <glyph glyph-name="r" unicode="r" horiz-adv-x="1120" 
d="M435 936v-192q0 -24 24 -24h151q70 0 70 70v100q0 70 -70 70h-151q-24 0 -24 -24zM961 601q84 -75 84 -179v-386q0 -36 -36 -36h-293q-36 0 -36 36v364q0 80 -80 80h-145q-20 0 -20 -24v-420q0 -36 -36 -36h-288q-36 0 -36 36v1128q0 36 36 36h591q140 0 239 -79t99 -191
v-154q0 -100 -79 -174v-1z" />
    <glyph glyph-name="s" unicode="s" horiz-adv-x="1115" 
d="M1004 600q36 -46 36 -103v-227q0 -112 -99 -191t-239 -79h-576q-36 0 -36 36v168q0 36 36 36h474q80 0 80 64v100q0 59 -65 72l-343 66q-71 11 -130 58q-18 15 -31 32q-36 46 -36 103v195q0 112 99 191t239 79h546q36 0 36 -36v-168q0 -36 -36 -36h-444q-80 0 -80 -64
v-68q0 -59 65 -72l343 -66q71 -11 130 -58q18 -15 31 -32z" />
    <glyph glyph-name="t" unicode="t" horiz-adv-x="1075" 
d="M334 960h-258q-36 0 -36 36v168q0 36 36 36h922q36 0 36 -36v-168q0 -36 -36 -36h-256q-24 0 -24 -24v-900q0 -36 -35 -36h-289q-36 0 -36 36v900q0 24 -24 24z" />
    <glyph glyph-name="u" unicode="u" 
d="M435 1164v-844q0 -80 90 -80h86q90 0 90 80v844q0 36 36 36h288q36 0 36 -36v-894q0 -112 -99 -191t-239 -79h-305q-145 0 -244 79t-99 191v894q0 36 36 36h288q36 0 36 -36z" />
    <glyph glyph-name="v" unicode="v" horiz-adv-x="1210" 
d="M605 258l216 906q6 36 42 36h271q30 0 30 -25q0 -5 -1 -11l-304 -1128q-7 -36 -43 -36h-422q-36 0 -43 36l-304 1128q-1 6 -1 11q0 25 30 25h271q36 0 42 -36z" />
    <glyph glyph-name="w" unicode="w" horiz-adv-x="1752" 
d="M876 883l-154 -847q-7 -36 -43 -36h-395q-36 0 -43 36l-194 1128q-1 6 -1 11q0 25 30 25h281q36 0 42 -36l131 -906l150 906q6 36 42 36h308q36 0 42 -36l150 -906l131 906q6 36 42 36h281q30 0 30 -25q0 -5 -1 -11l-194 -1128q-7 -36 -43 -36h-395q-36 0 -43 36z" />
    <glyph glyph-name="x" unicode="x" horiz-adv-x="1316" 
d="M861 600l407 -564q8 -13 8 -22q0 -14 -23 -14h-334q-36 0 -56 36l-205 280l-205 -280q-20 -36 -56 -36h-334q-23 0 -23 14q0 9 8 22l408 564l-408 564q-8 13 -8 22q0 14 23 14h334q36 0 56 -36l205 -280l205 280q20 36 56 36h334q23 0 23 -14q0 -9 -8 -22z" />
    <glyph glyph-name="y" unicode="y" horiz-adv-x="1364" 
d="M862 534v-498q0 -36 -35 -36h-289q-36 0 -36 36v498l-454 630q-8 13 -8 22q0 14 23 14h334q36 0 56 -36l229 -314l229 314q20 36 56 36h334q23 0 23 -14q0 -9 -8 -22z" />
    <glyph glyph-name="z" unicode="z" horiz-adv-x="1235" 
d="M111 1200h1013q36 0 36 -36v-269q0 -36 -35 -72l-730 -583h729q36 0 36 -36v-168q0 -36 -36 -36h-1013q-36 0 -36 36v319q0 36 35 72l667 533h-666q-36 0 -36 29v175q0 36 36 36z" />
    <glyph glyph-name="braceleft" unicode="{" horiz-adv-x="884" 
d="M411 750q10 -1 40 -20t89 -79q99 -99 99 -239v-161q0 -72 23.5 -104t71.5 -32h54q36 0 36 -36v-190q0 -36 -36 -36h-171q-140 0 -239 99t-99 239v254q0 155 -183 155q-36 0 -36 36v228q0 36 36 36q183 0 183 155v254q0 140 99 239t239 99h171q36 0 36 -36v-190
q0 -36 -36 -36h-54q-48 0 -71.5 -32t-23.5 -104v-161q0 -140 -99 -239q-59 -59 -89 -78.5t-40 -20.5z" />
    <glyph glyph-name="bar" unicode="|" horiz-adv-x="510" 
d="M435 -164q0 -36 -35 -36h-289q-36 0 -36 36v1828q0 36 36 36h289q35 0 35 -36v-1828z" />
    <glyph glyph-name="braceright" unicode="}" horiz-adv-x="884" 
d="M433 770.5q-30 19.5 -89 78.5q-99 99 -99 239v161q0 72 -23.5 104t-71.5 32h-54q-36 0 -36 36v190q0 36 36 36h171q140 0 239 -99t99 -239v-254q0 -155 183 -155q36 0 36 -36v-228q0 -36 -36 -36q-183 0 -183 -155v-254q0 -140 -99 -239t-239 -99h-171q-36 0 -36 36v190
q0 36 36 36h54q48 0 71.5 32t23.5 104v161q0 140 99 239q59 60 89 79t40 20q-10 1 -40 20.5z" />
    <glyph glyph-name="asciitilde" unicode="~" horiz-adv-x="999" 
d="M922 702q-18 -49 -46 -100t-64.5 -94t-82 -69.5t-96.5 -26.5q-37 0 -71.5 17t-68.5 36.5t-65.5 37t-62.5 17.5q-35 0 -67.5 -28.5t-45.5 -59.5q-6 -16 -14 -17h-2q-8 0 -23 5l-118 43q-20 5 -20 22q0 4 1 9q10 41 35 91t59.5 94t78.5 73.5t93 29.5q39 0 78 -17t77 -36.5
t71.5 -37t60.5 -17.5q41 0 67.5 29.5t43.5 62.5q10 16 24 16q5 0 11 -2l129 -41q16 -4 19 -12q1 -3 1 -9t-2 -16z" />
    <glyph glyph-name="exclamdown" unicode="&#xa1;" horiz-adv-x="510" 
d="M399 0h-288q-36 0 -36 36v1013q0 36 36 36h288q36 0 36 -36v-1013q0 -36 -36 -36zM399 1200h-288q-36 0 -36 36v228q0 36 36 36h288q36 0 36 -36v-228q0 -36 -36 -36z" />
    <glyph glyph-name="cent" unicode="&#xa2;" horiz-adv-x="1100" 
d="M435 540l252 412h-227q-24 0 -25 -24v-388zM456 248h533q36 0 36 -36v-176q0 -36 -36 -36h-576q-54 0 -102 12l-38 -63q-18 -29 -53 -29h-129q-24 0 -24 13q0 6 6 16l87 141q-85 76 -85 180v660q0 112 99 191t239 79h426l32 51q17 29 53 29h129q24 0 24 -13q0 -7 -6 -16
l-46 -76v-187q0 -36 -36 -36h-101z" />
    <glyph glyph-name="sterling" unicode="&#xa3;" horiz-adv-x="1185" 
d="M555 630v-294q0 -36 36 -36h493q36 0 36 -36v-228q0 -36 -36 -36h-551q-140 0 -239 99t-99 239v292h-90q-30 0 -30 30v180q0 30 30 30h90v594q0 36 31 36h533q36 0 36 -36v-228q0 -36 -36 -36h-204v-330h210q30 0 30 -30v-180q0 -30 -30 -30h-210z" />
    <glyph glyph-name="currency" unicode="&#xa4;" horiz-adv-x="1014" 
 />
    <glyph glyph-name="yen" unicode="&#xa5;" horiz-adv-x="1262" 
 />
    <glyph glyph-name="brokenbar" unicode="&#xa6;" horiz-adv-x="510" 
d="M111 1700h288q36 0 36 -36v-728q0 -36 -36 -36h-288q-36 0 -36 36v728q0 36 36 36zM111 600h288q36 0 36 -36v-728q0 -36 -36 -36h-288q-36 0 -36 36v728q0 36 36 36z" />
    <glyph glyph-name="section" unicode="&#xa7;" horiz-adv-x="1014" 
 />
    <glyph glyph-name="dieresis" unicode="&#xa8;" horiz-adv-x="750" 
d="M279 1260h-243q-36 0 -36 36v221q0 36 36 36h243q36 0 36 -36v-221q0 -36 -36 -36zM714 1260h-243q-36 0 -36 36v221q0 36 36 36h243q36 0 36 -36v-221q0 -36 -36 -36z" />
    <glyph glyph-name="copyright" unicode="&#xa9;" horiz-adv-x="1674" 
 />
    <glyph glyph-name="ordfeminine" unicode="&#xaa;" horiz-adv-x="648" 
 />
    <glyph glyph-name="guillemotleft" unicode="&#xab;" horiz-adv-x="1181" 
d="M359 750l236 -325q11 -16 11 -28q0 -16 -20 -26l-154 -85q-14 -8 -26 -8q-22 0 -40 23l-306 449l306 449q18 23 40 23q12 0 26 -8l154 -85q20 -10 20 -26q0 -12 -11 -28zM859 750l236 -325q11 -16 11 -28q0 -16 -20 -26l-154 -85q-14 -8 -26 -8q-22 0 -40 23l-306 449
l306 449q18 23 40 23q12 0 26 -8l154 -85q20 -10 20 -26q0 -12 -11 -28z" />
    <glyph glyph-name="logicalnot" unicode="&#xac;" horiz-adv-x="1014" 
 />
    <glyph glyph-name="registered" unicode="&#xae;" horiz-adv-x="1674" 
 />
    <glyph glyph-name="macron" unicode="&#xaf;" horiz-adv-x="670" 
 />
    <glyph glyph-name="degree" unicode="&#xb0;" horiz-adv-x="674" 
 />
    <glyph glyph-name="plusminus" unicode="&#xb1;" horiz-adv-x="1150" 
d="M455 830h-350q-30 0 -30 30v180q0 30 30 30h350v350q0 30 30 30h180q30 0 30 -30v-350h350q30 0 30 -30v-180q0 -30 -30 -30h-350v-350q0 -30 -30 -30h-180q-30 0 -30 30v350zM105 0q-30 0 -30 30v180q0 30 30 30h940q30 0 30 -30v-180q0 -30 -30 -30h-940z" />
    <glyph glyph-name="uni00B2" unicode="&#xb2;" horiz-adv-x="1014" 
 />
    <glyph glyph-name="uni00B3" unicode="&#xb3;" horiz-adv-x="1014" 
 />
    <glyph glyph-name="acute" unicode="&#xb4;" horiz-adv-x="525" 
d="M241 1305q-15 -15 -34 -30t-46 -15h-121q-33 0 -39 16q-1 4 -1 8q0 15 15 37l177 248q16 22 29.5 35.5t39.5 13.5h211q47 0 53 -18v-7q0 -16 -24 -40z" />
    <glyph glyph-name="mu" unicode="&#xb5;" horiz-adv-x="1180" 
 />
    <glyph glyph-name="paragraph" unicode="&#xb6;" horiz-adv-x="1024" 
 />
    <glyph glyph-name="periodcentered" unicode="&#xb7;" horiz-adv-x="508" 
 />
    <glyph glyph-name="periodcentered" unicode="&#x2219;" horiz-adv-x="508" 
 />
    <glyph glyph-name="cedilla" unicode="&#xb8;" horiz-adv-x="675" 
d="M316 -227q-15 -15 -34 -30t-46 -15h-121q-33 0 -39 16q-1 4 -1 8q0 15 15 37l177 248q16 22 29.5 35.5t39.5 13.5h211q47 0 53 -18v-7q0 -16 -24 -40z" />
    <glyph glyph-name="uni00B9" unicode="&#xb9;" horiz-adv-x="1014" 
 />
    <glyph glyph-name="ordmasculine" unicode="&#xba;" horiz-adv-x="718" 
 />
    <glyph glyph-name="guillemotright" unicode="&#xbb;" horiz-adv-x="1166" 
d="M571 1075q-11 16 -11 28q0 16 20 26l154 85q14 8 26 8q22 0 40 -23l306 -449l-306 -449q-18 -23 -40 -23q-12 0 -26 8l-154 85q-20 10 -20 26q0 12 11 28l236 325zM71 1075q-11 16 -11 28q0 16 20 26l154 85q14 8 26 8q22 0 40 -23l306 -449l-306 -449q-18 -23 -40 -23
q-12 0 -26 8l-154 85q-20 10 -20 26q0 12 11 28l236 325z" />
    <glyph glyph-name="onequarter" unicode="&#xbc;" horiz-adv-x="1708" 
 />
    <glyph glyph-name="onehalf" unicode="&#xbd;" horiz-adv-x="1964" 
 />
    <glyph glyph-name="threequarters" unicode="&#xbe;" horiz-adv-x="1145" 
 />
    <glyph glyph-name="questiondown" unicode="&#xbf;" 
d="M712 1200h-288q-36 0 -36 36v228q0 36 36 36h288q36 0 36 -36v-228q0 -36 -36 -36zM388 899v150q0 36 36 36h288q36 0 36 -36v-413q0 -36 -36 -36h-187q-90 0 -90 -90v-120q0 -90 90 -90h86q90 0 90 90v50q0 36 36 36h288q36 0 36 -36v-102q0 -140 -99 -239t-239 -99
h-310q-140 0 -239 99t-99 239v224q0 140 99 239q90 90 214 98z" />
    <glyph glyph-name="Agrave" unicode="&#xc0;" horiz-adv-x="1210" 
d="M605 1178l-90 -548h180zM470 355l-51 -319q-6 -36 -42 -36h-301q-30 0 -30 25q0 5 1 11l274 1428q7 36 43 36h482q36 0 43 -36l274 -1428q1 -6 1 -11q0 -25 -30 -25h-301q-36 0 -42 36l-51 319h-270zM764 1621q16 -22 16 -37q0 -4 -1 -8q-7 -16 -40 -16h-120
q-27 0 -46.5 15t-33.5 30l-260 248q-25 24 -25 41q0 3 1 6q5 18 52 18h211q27 0 40.5 -13.5t29.5 -35.5z" />
    <glyph glyph-name="Aacute" unicode="&#xc1;" horiz-adv-x="1210" 
d="M605 1178l-90 -548h180zM470 355l-51 -319q-6 -36 -42 -36h-301q-30 0 -30 25q0 5 1 11l274 1428q7 36 43 36h482q36 0 43 -36l274 -1428q1 -6 1 -11q0 -25 -30 -25h-301q-36 0 -42 36l-51 319h-270zM671 1605q-15 -15 -34 -30t-46 -15h-121q-33 0 -39 16q-1 4 -1 8
q0 15 15 37l177 248q16 22 29.5 35.5t39.5 13.5h211q47 0 53 -18v-7q0 -16 -24 -40z" />
    <glyph glyph-name="Acircumflex" unicode="&#xc2;" horiz-adv-x="1210" 
d="M605 1178l-90 -548h180zM470 355l-51 -319q-6 -36 -42 -36h-301q-30 0 -30 25q0 5 1 11l274 1428q7 36 43 36h482q36 0 43 -36l274 -1428q1 -6 1 -11q0 -25 -30 -25h-301q-36 0 -42 36l-51 319h-270zM920 1623q17 -20 17 -39v-3q-2 -21 -43 -21h-123q-23 0 -34 5t-26 25
l-106 138l-107 -138q-16 -22 -28.5 -26t-28.5 -4h-125q-41 0 -43 21v4q0 18 16 38l195 246q12 16 26.5 32.5t34.5 16.5h111q27 0 42 -16.5t28 -32.5z" />
    <glyph glyph-name="Atilde" unicode="&#xc3;" horiz-adv-x="1210" 
d="M605 1178l-90 -548h180zM470 355l-51 -319q-6 -36 -42 -36h-301q-30 0 -30 25q0 5 1 11l274 1428q7 36 43 36h482q36 0 43 -36l274 -1428q1 -6 1 -11q0 -25 -30 -25h-301q-36 0 -42 36l-51 319h-270zM999 1798q-17 -47 -43.5 -89t-61.5 -76t-77 -53.5t-89 -19.5
q-34 0 -66 15.5t-62.5 35t-61.5 35t-60 15.5q-32 0 -63 -27t-43 -55q-7 -16 -21 -16q-6 0 -14 3l-110 39q-19 8 -19 22q0 4 2 9q8 37 31.5 79t56.5 77t74 57.5t86 22.5q37 0 73 -15.5t70.5 -35t66.5 -35t56 -15.5q39 0 65.5 27t43.5 55q7 18 21 18q5 0 12 -3l116 -35
q21 -5 21 -20q0 -7 -4 -15z" />
    <glyph glyph-name="Adieresis" unicode="&#xc4;" horiz-adv-x="1210" 
d="M605 1178l-90 -548h180zM470 355l-51 -319q-6 -36 -42 -36h-301q-30 0 -30 25q0 5 1 11l274 1428q7 36 43 36h482q36 0 43 -36l274 -1428q1 -6 1 -11q0 -25 -30 -25h-301q-36 0 -42 36l-51 319h-270zM509 1560h-243q-36 0 -36 36v221q0 36 36 36h243q36 0 36 -36v-221
q0 -36 -36 -36zM944 1560h-243q-36 0 -36 36v221q0 36 36 36h243q36 0 36 -36v-221q0 -36 -36 -36z" />
    <glyph glyph-name="Aring" unicode="&#xc5;" horiz-adv-x="1210" 
d="M605 1178l-90 -548h180zM470 355l-51 -319q-6 -36 -42 -36h-301q-30 0 -30 25q0 5 1 11l274 1428q7 36 43 36h482q36 0 43 -36l274 -1428q1 -6 1 -11q0 -25 -30 -25h-301q-36 0 -42 36l-51 319h-270zM880 1766q0 -55 -22.5 -103.5t-59.5 -85t-87 -57t-106 -20.5
q-55 0 -105 20.5t-87 57t-59.5 85t-22.5 103.5t22.5 103.5t59.5 85t87 57t105 20.5q56 0 106 -20.5t87 -57t59.5 -85t22.5 -103.5zM720 1766q0 47 -32.5 85t-82.5 38q-49 0 -81.5 -38t-32.5 -85t32.5 -85t81.5 -38q50 0 82.5 38t32.5 85z" />
    <glyph glyph-name="AE" unicode="&#xc6;" horiz-adv-x="1747" 
d="M605 1178l-90 -548h180zM749 302h-1l-8 53h-270l-51 -319q-6 -36 -42 -36h-301q-30 0 -30 25q0 5 1 11l274 1428q7 36 43 36h1247q36 0 36 -36v-228q0 -36 -36 -36h-480q-24 0 -24 -24v-252q0 -24 24 -24h400q36 0 36 -36v-228q0 -36 -36 -36h-400q-24 0 -24 -24v-146
q0 -130 130 -130h399q36 0 36 -36v-228q0 -36 -36 -36h-551q-140 0 -239 99q-86 86 -97 203z" />
    <glyph glyph-name="Ccedilla" unicode="&#xc7;" horiz-adv-x="1100" 
d="M453 0h-40q-140 0 -239 99t-99 239v824q0 140 99 239t239 99h576q36 0 36 -36v-228q0 -36 -36 -36h-529q-24 0 -25 -24v-852q1 -24 25 -24h529q36 0 36 -36v-228q0 -36 -36 -36h-223l-238 -227q-14 -15 -33.5 -30t-46.5 -15h-120q-33 0 -39 16q-1 4 -1 8q0 15 15 37z" />
    <glyph glyph-name="Egrave" unicode="&#xc8;" horiz-adv-x="1075" 
d="M75 338v1126q0 36 36 36h828q36 0 36 -36v-228q0 -36 -36 -36h-480q-24 0 -24 -24v-252q0 -24 24 -24h400q36 0 36 -36v-228q0 -36 -36 -36h-400q-24 0 -24 -24v-146q0 -130 130 -130h399q36 0 36 -36v-228q0 -36 -36 -36h-551q-140 0 -239 99t-99 239zM697 1621
q16 -22 16 -37q0 -4 -1 -8q-7 -16 -40 -16h-120q-27 0 -46.5 15t-33.5 30l-260 248q-25 24 -25 41q0 3 1 6q5 18 52 18h211q27 0 40.5 -13.5t29.5 -35.5z" />
    <glyph glyph-name="Eacute" unicode="&#xc9;" horiz-adv-x="1075" 
d="M75 338v1126q0 36 36 36h828q36 0 36 -36v-228q0 -36 -36 -36h-480q-24 0 -24 -24v-252q0 -24 24 -24h400q36 0 36 -36v-228q0 -36 -36 -36h-400q-24 0 -24 -24v-146q0 -130 130 -130h399q36 0 36 -36v-228q0 -36 -36 -36h-551q-140 0 -239 99t-99 239zM604 1605
q-15 -15 -34 -30t-46 -15h-121q-33 0 -39 16q-1 4 -1 8q0 15 15 37l177 248q16 22 29.5 35.5t39.5 13.5h211q47 0 53 -18v-7q0 -16 -24 -40z" />
    <glyph glyph-name="Ecircumflex" unicode="&#xca;" horiz-adv-x="1075" 
d="M75 338v1126q0 36 36 36h828q36 0 36 -36v-228q0 -36 -36 -36h-480q-24 0 -24 -24v-252q0 -24 24 -24h400q36 0 36 -36v-228q0 -36 -36 -36h-400q-24 0 -24 -24v-146q0 -130 130 -130h399q36 0 36 -36v-228q0 -36 -36 -36h-551q-140 0 -239 99t-99 239zM853 1623
q17 -20 17 -39v-3q-2 -21 -43 -21h-123q-23 0 -34 5t-26 25l-106 138l-107 -138q-16 -22 -28.5 -26t-28.5 -4h-125q-41 0 -43 21v4q0 18 16 38l195 246q12 16 26.5 32.5t34.5 16.5h111q27 0 42 -16.5t28 -32.5z" />
    <glyph glyph-name="Edieresis" unicode="&#xcb;" horiz-adv-x="1075" 
d="M75 338v1126q0 36 36 36h828q36 0 36 -36v-228q0 -36 -36 -36h-480q-24 0 -24 -24v-252q0 -24 24 -24h400q36 0 36 -36v-228q0 -36 -36 -36h-400q-24 0 -24 -24v-146q0 -130 130 -130h399q36 0 36 -36v-228q0 -36 -36 -36h-551q-140 0 -239 99t-99 239zM442 1560h-243
q-36 0 -36 36v221q0 36 36 36h243q36 0 36 -36v-221q0 -36 -36 -36zM877 1560h-243q-36 0 -36 36v221q0 36 36 36h243q36 0 36 -36v-221q0 -36 -36 -36z" />
    <glyph glyph-name="Igrave" unicode="&#xcc;" horiz-adv-x="510" 
d="M435 36q0 -36 -35 -36h-289q-36 0 -36 36v1428q0 36 36 36h289q35 0 35 -36v-1428zM414 1621q16 -22 16 -37q0 -4 -1 -8q-7 -16 -40 -16h-120q-27 0 -46.5 15t-33.5 30l-260 248q-25 24 -25 41q0 3 1 6q5 18 52 18h211q27 0 40.5 -13.5t29.5 -35.5z" />
    <glyph glyph-name="Iacute" unicode="&#xcd;" horiz-adv-x="510" 
d="M435 36q0 -36 -35 -36h-289q-36 0 -36 36v1428q0 36 36 36h289q35 0 35 -36v-1428zM321 1605q-15 -15 -34 -30t-46 -15h-121q-33 0 -39 16q-1 4 -1 8q0 15 15 37l177 248q16 22 29.5 35.5t39.5 13.5h211q47 0 53 -18v-7q0 -16 -24 -40z" />
    <glyph glyph-name="Icircumflex" unicode="&#xce;" horiz-adv-x="510" 
d="M435 36q0 -36 -35 -36h-289q-36 0 -36 36v1428q0 36 36 36h289q35 0 35 -36v-1428zM570 1623q17 -20 17 -39v-3q-2 -21 -43 -21h-123q-23 0 -34 5t-26 25l-106 138l-107 -138q-16 -22 -28.5 -26t-28.5 -4h-125q-41 0 -43 21v4q0 18 16 38l195 246q12 16 26.5 32.5
t34.5 16.5h111q27 0 42 -16.5t28 -32.5z" />
    <glyph glyph-name="Idieresis" unicode="&#xcf;" horiz-adv-x="510" 
d="M435 36q0 -36 -35 -36h-289q-36 0 -36 36v1428q0 36 36 36h289q35 0 35 -36v-1428zM159 1560h-243q-36 0 -36 36v221q0 36 36 36h243q36 0 36 -36v-221q0 -36 -36 -36zM594 1560h-243q-36 0 -36 36v221q0 36 36 36h243q36 0 36 -36v-221q0 -36 -36 -36z" />
    <glyph glyph-name="Eth" unicode="&#xd0;" horiz-adv-x="1185" 
d="M115 870v594q0 36 36 36h621q140 0 239 -99t99 -239v-824q0 -140 -99 -239t-239 -99h-621q-36 0 -36 36v594h-45q-30 0 -30 30v180q0 30 30 30h45zM475 870h45q30 0 30 -30v-180q0 -30 -30 -30h-45v-306q0 -24 24 -24h181q70 0 70 70v760q0 70 -70 70h-181q-24 0 -24 -24
v-306z" />
    <glyph glyph-name="Ntilde" unicode="&#xd1;" horiz-adv-x="1299" 
d="M864 606v858q0 36 36 36h289q35 0 35 -36v-1428q0 -36 -35 -36h-414q-36 0 -48 36l-292 864v-864q0 -36 -35 -36h-289q-36 0 -36 36v1428q0 36 36 36h416q36 0 48 -36zM1043 1798q-17 -47 -43.5 -89t-61.5 -76t-77 -53.5t-89 -19.5q-34 0 -66 15.5t-62.5 35t-61.5 35
t-60 15.5q-32 0 -63 -27t-43 -55q-7 -16 -21 -16q-6 0 -14 3l-110 39q-19 8 -19 22q0 4 2 9q8 37 31.5 79t56.5 77t74 57.5t86 22.5q37 0 73 -15.5t70.5 -35t66.5 -35t56 -15.5q39 0 65.5 27t43.5 55q7 18 21 18q5 0 12 -3l116 -35q21 -5 21 -20q0 -7 -4 -15z" />
    <glyph glyph-name="Ograve" unicode="&#xd2;" 
d="M1061 338q0 -140 -99 -239t-239 -99h-310q-140 0 -239 99t-99 239v824q0 140 99 239t239 99h310q140 0 239 -99t99 -239v-824zM435 390q0 -90 90 -90h86q90 0 90 90v720q0 90 -90 90h-86q-90 0 -90 -90v-720zM727 1621q16 -22 16 -37q0 -4 -1 -8q-7 -16 -40 -16h-120
q-27 0 -46.5 15t-33.5 30l-260 248q-25 24 -25 41q0 3 1 6q5 18 52 18h211q27 0 40.5 -13.5t29.5 -35.5z" />
    <glyph glyph-name="Oacute" unicode="&#xd3;" 
d="M1061 338q0 -140 -99 -239t-239 -99h-310q-140 0 -239 99t-99 239v824q0 140 99 239t239 99h310q140 0 239 -99t99 -239v-824zM435 390q0 -90 90 -90h86q90 0 90 90v720q0 90 -90 90h-86q-90 0 -90 -90v-720zM634 1605q-15 -15 -34 -30t-46 -15h-121q-33 0 -39 16
q-1 4 -1 8q0 15 15 37l177 248q16 22 29.5 35.5t39.5 13.5h211q47 0 53 -18v-7q0 -16 -24 -40z" />
    <glyph glyph-name="Ocircumflex" unicode="&#xd4;" 
d="M1061 338q0 -140 -99 -239t-239 -99h-310q-140 0 -239 99t-99 239v824q0 140 99 239t239 99h310q140 0 239 -99t99 -239v-824zM435 390q0 -90 90 -90h86q90 0 90 90v720q0 90 -90 90h-86q-90 0 -90 -90v-720zM883 1623q17 -20 17 -39v-3q-2 -21 -43 -21h-123q-23 0 -34 5
t-26 25l-106 138l-107 -138q-16 -22 -28.5 -26t-28.5 -4h-125q-41 0 -43 21v4q0 18 16 38l195 246q12 16 26.5 32.5t34.5 16.5h111q27 0 42 -16.5t28 -32.5z" />
    <glyph glyph-name="Otilde" unicode="&#xd5;" 
d="M1061 338q0 -140 -99 -239t-239 -99h-310q-140 0 -239 99t-99 239v824q0 140 99 239t239 99h310q140 0 239 -99t99 -239v-824zM435 390q0 -90 90 -90h86q90 0 90 90v720q0 90 -90 90h-86q-90 0 -90 -90v-720zM962 1798q-17 -47 -43.5 -89t-61.5 -76t-77 -53.5t-89 -19.5
q-34 0 -66 15.5t-62.5 35t-61.5 35t-60 15.5q-32 0 -63 -27t-43 -55q-7 -16 -21 -16q-6 0 -14 3l-110 39q-19 8 -19 22q0 4 2 9q8 37 31.5 79t56.5 77t74 57.5t86 22.5q37 0 73 -15.5t70.5 -35t66.5 -35t56 -15.5q39 0 65.5 27t43.5 55q7 18 21 18q5 0 12 -3l116 -35
q21 -5 21 -20q0 -7 -4 -15z" />
    <glyph glyph-name="Odieresis" unicode="&#xd6;" 
d="M1061 338q0 -140 -99 -239t-239 -99h-310q-140 0 -239 99t-99 239v824q0 140 99 239t239 99h310q140 0 239 -99t99 -239v-824zM435 390q0 -90 90 -90h86q90 0 90 90v720q0 90 -90 90h-86q-90 0 -90 -90v-720zM472 1560h-243q-36 0 -36 36v221q0 36 36 36h243q36 0 36 -36
v-221q0 -36 -36 -36zM907 1560h-243q-36 0 -36 36v221q0 36 36 36h243q36 0 36 -36v-221q0 -36 -36 -36z" />
    <glyph glyph-name="multiply" unicode="&#xd7;" horiz-adv-x="1007" 
d="M503 580l-247 -247q-21 -21 -43 0l-127 127q-21 21 0 43l248 247l-248 247q-21 22 0 43l127 127q22 21 43 0l247 -247l248 247q21 21 42 0l128 -127q21 -21 0 -43l-248 -247l248 -247q21 -22 0 -43l-128 -127q-21 -21 -42 0z" />
    <glyph glyph-name="Oslash" unicode="&#xd8;" horiz-adv-x="1143" 
d="M162 117q-82 94 -82 221v824q0 140 99 239t239 99h310q55 0 104 -15l39 79q17 36 53 36h129q24 0 24 -16q0 -8 -6 -20l-88 -180q83 -94 83 -222v-824q0 -140 -99 -239t-239 -99h-310q-56 0 -106 16l-39 -80q-18 -36 -53 -36h-129q-24 0 -24 16q0 8 6 20zM706 819
l-244 -496q23 -23 68 -23h86q90 0 90 90v429zM440 685l242 494q-22 21 -66 21h-86q-90 0 -90 -90v-425z" />
    <glyph glyph-name="Ugrave" unicode="&#xd9;" 
d="M435 1464v-1074q0 -90 90 -90h86q90 0 90 90v1074q0 36 36 36h288q36 0 36 -36v-1126q0 -140 -99 -239t-239 -99h-305q-145 0 -244 99t-99 239v1126q0 36 36 36h288q36 0 36 -36zM727 1621q16 -22 16 -37q0 -4 -1 -8q-7 -16 -40 -16h-120q-27 0 -46.5 15t-33.5 30
l-260 248q-25 24 -25 41q0 3 1 6q5 18 52 18h211q27 0 40.5 -13.5t29.5 -35.5z" />
    <glyph glyph-name="Uacute" unicode="&#xda;" 
d="M435 1464v-1074q0 -90 90 -90h86q90 0 90 90v1074q0 36 36 36h288q36 0 36 -36v-1126q0 -140 -99 -239t-239 -99h-305q-145 0 -244 99t-99 239v1126q0 36 36 36h288q36 0 36 -36zM634 1605q-15 -15 -34 -30t-46 -15h-121q-33 0 -39 16q-1 4 -1 8q0 15 15 37l177 248
q16 22 29.5 35.5t39.5 13.5h211q47 0 53 -18v-7q0 -16 -24 -40z" />
    <glyph glyph-name="Ucircumflex" unicode="&#xdb;" 
d="M435 1464v-1074q0 -90 90 -90h86q90 0 90 90v1074q0 36 36 36h288q36 0 36 -36v-1126q0 -140 -99 -239t-239 -99h-305q-145 0 -244 99t-99 239v1126q0 36 36 36h288q36 0 36 -36zM883 1623q17 -20 17 -39v-3q-2 -21 -43 -21h-123q-23 0 -34 5t-26 25l-106 138l-107 -138
q-16 -22 -28.5 -26t-28.5 -4h-125q-41 0 -43 21v4q0 18 16 38l195 246q12 16 26.5 32.5t34.5 16.5h111q27 0 42 -16.5t28 -32.5z" />
    <glyph glyph-name="Udieresis" unicode="&#xdc;" 
d="M435 1464v-1074q0 -90 90 -90h86q90 0 90 90v1074q0 36 36 36h288q36 0 36 -36v-1126q0 -140 -99 -239t-239 -99h-305q-145 0 -244 99t-99 239v1126q0 36 36 36h288q36 0 36 -36zM472 1560h-243q-36 0 -36 36v221q0 36 36 36h243q36 0 36 -36v-221q0 -36 -36 -36z
M907 1560h-243q-36 0 -36 36v221q0 36 36 36h243q36 0 36 -36v-221q0 -36 -36 -36z" />
    <glyph glyph-name="Yacute" unicode="&#xdd;" horiz-adv-x="1364" 
d="M862 668v-632q0 -36 -35 -36h-289q-36 0 -36 36v632l-454 796q-8 13 -8 22q0 14 23 14h334q36 0 56 -36l229 -402l229 402q20 36 56 36h334q23 0 23 -14q0 -9 -8 -22zM748 1605q-15 -15 -34 -30t-46 -15h-121q-33 0 -39 16q-1 4 -1 8q0 15 15 37l177 248q16 22 29.5 35.5
t39.5 13.5h211q47 0 53 -18v-7q0 -16 -24 -40z" />
    <glyph glyph-name="Thorn" unicode="&#xde;" horiz-adv-x="1125" 
d="M435 1274q0 -24 24 -24h253q140 0 239 -99t99 -239v-324q0 -140 -99 -239t-239 -99h-253q-24 0 -24 -24v-190q0 -36 -36 -36h-288q-36 0 -36 36v1428q0 36 36 36h288q36 0 36 -36v-190zM435 564q0 -24 24 -24h161q70 0 70 70v285q0 70 -70 70h-161q-24 0 -24 -24v-377z
" />
    <glyph glyph-name="germandbls" unicode="&#xdf;" horiz-adv-x="1160" 
d="M413 1200h299q140 0 239 -79t99 -191v-92q0 -112 -99 -191q-10 -8 -20 -14v-1q29 -15 55 -35q99 -79 99 -193v-134q0 -112 -99 -191t-239 -79h-182q-30 0 -30 30v180q0 30 30 30h65q95 0 95 64v112q0 64 -80 64h-80q-30 0 -30 30v180q0 30 30 30h55q70 0 70 56v128
q0 56 -70 56h-161q-24 0 -24 -19v-1101q0 -30 -30 -30h-300q-30 0 -30 30v1090q0 112 99 191t239 79z" />
    <glyph glyph-name="agrave" unicode="&#xe0;" horiz-adv-x="1210" 
d="M605 942l-90 -438h180zM470 284l-51 -248q-6 -36 -42 -36h-301q-30 0 -30 25q0 5 1 11l274 1128q7 36 43 36h482q36 0 43 -36l274 -1128q1 -6 1 -11q0 -25 -30 -25h-301q-36 0 -42 36l-51 248h-270zM764 1321q16 -22 16 -37q0 -4 -1 -8q-7 -16 -40 -16h-120
q-27 0 -46.5 15t-33.5 30l-260 248q-25 24 -25 41q0 3 1 6q5 18 52 18h211q27 0 40.5 -13.5t29.5 -35.5z" />
    <glyph glyph-name="aacute" unicode="&#xe1;" horiz-adv-x="1210" 
d="M605 942l-90 -438h180zM470 284l-51 -248q-6 -36 -42 -36h-301q-30 0 -30 25q0 5 1 11l274 1128q7 36 43 36h482q36 0 43 -36l274 -1128q1 -6 1 -11q0 -25 -30 -25h-301q-36 0 -42 36l-51 248h-270zM671 1305q-15 -15 -34 -30t-46 -15h-121q-33 0 -39 16q-1 4 -1 8
q0 15 15 37l177 248q16 22 29.5 35.5t39.5 13.5h211q47 0 53 -18v-7q0 -16 -24 -40z" />
    <glyph glyph-name="acircumflex" unicode="&#xe2;" horiz-adv-x="1210" 
d="M605 942l-90 -438h180zM470 284l-51 -248q-6 -36 -42 -36h-301q-30 0 -30 25q0 5 1 11l274 1128q7 36 43 36h482q36 0 43 -36l274 -1128q1 -6 1 -11q0 -25 -30 -25h-301q-36 0 -42 36l-51 248h-270zM920 1323q17 -20 17 -39v-3q-2 -21 -43 -21h-123q-23 0 -34 5t-26 25
l-106 138l-107 -138q-16 -22 -28.5 -26t-28.5 -4h-125q-41 0 -43 21v4q0 18 16 38l195 246q12 16 26.5 32.5t34.5 16.5h111q27 0 42 -16.5t28 -32.5z" />
    <glyph glyph-name="atilde" unicode="&#xe3;" horiz-adv-x="1210" 
d="M605 942l-90 -438h180zM470 284l-51 -248q-6 -36 -42 -36h-301q-30 0 -30 25q0 5 1 11l274 1128q7 36 43 36h482q36 0 43 -36l274 -1128q1 -6 1 -11q0 -25 -30 -25h-301q-36 0 -42 36l-51 248h-270zM999 1498q-17 -47 -43.5 -89t-61.5 -76t-77 -53.5t-89 -19.5
q-34 0 -66 15.5t-62.5 35t-61.5 35t-60 15.5q-32 0 -63 -27t-43 -55q-7 -16 -21 -16q-6 0 -14 3l-110 39q-19 8 -19 22q0 4 2 9q8 37 31.5 79t56.5 77t74 57.5t86 22.5q37 0 73 -15.5t70.5 -35t66.5 -35t56 -15.5q39 0 65.5 27t43.5 55q7 18 21 18q5 0 12 -3l116 -35
q21 -5 21 -20q0 -7 -4 -15z" />
    <glyph glyph-name="adieresis" unicode="&#xe4;" horiz-adv-x="1210" 
d="M605 942l-90 -438h180zM470 284l-51 -248q-6 -36 -42 -36h-301q-30 0 -30 25q0 5 1 11l274 1128q7 36 43 36h482q36 0 43 -36l274 -1128q1 -6 1 -11q0 -25 -30 -25h-301q-36 0 -42 36l-51 248h-270zM509 1260h-243q-36 0 -36 36v221q0 36 36 36h243q36 0 36 -36v-221
q0 -36 -36 -36zM944 1260h-243q-36 0 -36 36v221q0 36 36 36h243q36 0 36 -36v-221q0 -36 -36 -36z" />
    <glyph glyph-name="aring" unicode="&#xe5;" horiz-adv-x="1210" 
d="M605 942l-90 -438h180zM470 284l-51 -248q-6 -36 -42 -36h-301q-30 0 -30 25q0 5 1 11l274 1128q7 36 43 36h482q36 0 43 -36l274 -1128q1 -6 1 -11q0 -25 -30 -25h-301q-36 0 -42 36l-51 248h-270zM880 1466q0 -55 -22.5 -103.5t-59.5 -85t-87 -57t-106 -20.5
q-55 0 -105 20.5t-87 57t-59.5 85t-22.5 103.5t22.5 103.5t59.5 85t87 57t105 20.5q56 0 106 -20.5t87 -57t59.5 -85t22.5 -103.5zM720 1466q0 47 -32.5 85t-82.5 38q-49 0 -81.5 -38t-32.5 -85t32.5 -85t81.5 -38q50 0 82.5 38t32.5 85z" />
    <glyph glyph-name="ae" unicode="&#xe6;" horiz-adv-x="1747" 
d="M605 942l-90 -438h180zM749 242h-1l-8 42h-270l-51 -248q-6 -36 -42 -36h-301q-30 0 -30 25q0 5 1 11l274 1128q7 36 43 36h1247q36 0 36 -36v-168q0 -36 -36 -36h-480q-24 0 -24 -24v-192q0 -24 24 -24h400q36 0 36 -36v-168q0 -36 -36 -36h-400q-24 0 -24 -24v-86
q0 -130 130 -130h399q36 0 36 -36v-168q0 -36 -36 -36h-551q-140 0 -239 79q-86 69 -97 163z" />
    <glyph glyph-name="ccedilla" unicode="&#xe7;" horiz-adv-x="1100" 
d="M453 0h-40q-140 0 -239 79t-99 191v660q0 112 99 191t239 79h576q36 0 36 -36v-168q0 -36 -36 -36h-529q-24 0 -25 -24v-672q1 -24 25 -24h529q36 0 36 -36v-168q0 -36 -36 -36h-223l-238 -182q-14 -12 -33.5 -24t-46.5 -12h-120q-33 0 -39 13q-1 3 -1 7q0 11 15 29z" />
    <glyph glyph-name="egrave" unicode="&#xe8;" horiz-adv-x="1075" 
d="M75 270v894q0 36 36 36h828q36 0 36 -36v-168q0 -36 -36 -36h-480q-24 0 -24 -24v-192q0 -24 24 -24h400q36 0 36 -36v-168q0 -36 -36 -36h-400q-24 0 -24 -24v-86q0 -130 130 -130h399q36 0 36 -36v-168q0 -36 -36 -36h-551q-140 0 -239 79t-99 191zM697 1321
q16 -22 16 -37q0 -4 -1 -8q-7 -16 -40 -16h-120q-27 0 -46.5 15t-33.5 30l-260 248q-25 24 -25 41q0 3 1 6q5 18 52 18h211q27 0 40.5 -13.5t29.5 -35.5z" />
    <glyph glyph-name="eacute" unicode="&#xe9;" horiz-adv-x="1075" 
d="M75 270v894q0 36 36 36h828q36 0 36 -36v-168q0 -36 -36 -36h-480q-24 0 -24 -24v-192q0 -24 24 -24h400q36 0 36 -36v-168q0 -36 -36 -36h-400q-24 0 -24 -24v-86q0 -130 130 -130h399q36 0 36 -36v-168q0 -36 -36 -36h-551q-140 0 -239 79t-99 191zM604 1305
q-15 -15 -34 -30t-46 -15h-121q-33 0 -39 16q-1 4 -1 8q0 15 15 37l177 248q16 22 29.5 35.5t39.5 13.5h211q47 0 53 -18v-7q0 -16 -24 -40z" />
    <glyph glyph-name="ecircumflex" unicode="&#xea;" horiz-adv-x="1075" 
d="M75 270v894q0 36 36 36h828q36 0 36 -36v-168q0 -36 -36 -36h-480q-24 0 -24 -24v-192q0 -24 24 -24h400q36 0 36 -36v-168q0 -36 -36 -36h-400q-24 0 -24 -24v-86q0 -130 130 -130h399q36 0 36 -36v-168q0 -36 -36 -36h-551q-140 0 -239 79t-99 191zM853 1323
q17 -20 17 -39v-3q-2 -21 -43 -21h-123q-23 0 -34 5t-26 25l-106 138l-107 -138q-16 -22 -28.5 -26t-28.5 -4h-125q-41 0 -43 21v4q0 18 16 38l195 246q12 16 26.5 32.5t34.5 16.5h111q27 0 42 -16.5t28 -32.5z" />
    <glyph glyph-name="edieresis" unicode="&#xeb;" horiz-adv-x="1075" 
d="M75 270v894q0 36 36 36h828q36 0 36 -36v-168q0 -36 -36 -36h-480q-24 0 -24 -24v-192q0 -24 24 -24h400q36 0 36 -36v-168q0 -36 -36 -36h-400q-24 0 -24 -24v-86q0 -130 130 -130h399q36 0 36 -36v-168q0 -36 -36 -36h-551q-140 0 -239 79t-99 191zM442 1260h-243
q-36 0 -36 36v221q0 36 36 36h243q36 0 36 -36v-221q0 -36 -36 -36zM877 1260h-243q-36 0 -36 36v221q0 36 36 36h243q36 0 36 -36v-221q0 -36 -36 -36z" />
    <glyph glyph-name="igrave" unicode="&#xec;" horiz-adv-x="510" 
d="M435 29q0 -29 -35 -29h-289q-36 0 -36 29v1142q0 29 36 29h289q35 0 35 -29v-1142zM414 1321q16 -22 16 -37q0 -4 -1 -8q-7 -16 -40 -16h-120q-27 0 -46.5 15t-33.5 30l-260 248q-25 24 -25 41q0 3 1 6q5 18 52 18h211q27 0 40.5 -13.5t29.5 -35.5z" />
    <glyph glyph-name="iacute" unicode="&#xed;" horiz-adv-x="510" 
d="M435 29q0 -29 -35 -29h-289q-36 0 -36 29v1142q0 29 36 29h289q35 0 35 -29v-1142zM321 1305q-15 -15 -34 -30t-46 -15h-121q-33 0 -39 16q-1 4 -1 8q0 15 15 37l177 248q16 22 29.5 35.5t39.5 13.5h211q47 0 53 -18v-7q0 -16 -24 -40z" />
    <glyph glyph-name="icircumflex" unicode="&#xee;" horiz-adv-x="510" 
d="M435 29q0 -29 -35 -29h-289q-36 0 -36 29v1142q0 29 36 29h289q35 0 35 -29v-1142zM570 1323q17 -20 17 -39v-3q-2 -21 -43 -21h-123q-23 0 -34 5t-26 25l-106 138l-107 -138q-16 -22 -28.5 -26t-28.5 -4h-125q-41 0 -43 21v4q0 18 16 38l195 246q12 16 26.5 32.5
t34.5 16.5h111q27 0 42 -16.5t28 -32.5z" />
    <glyph glyph-name="idieresis" unicode="&#xef;" horiz-adv-x="510" 
d="M435 29q0 -29 -35 -29h-289q-36 0 -36 29v1142q0 29 36 29h289q35 0 35 -29v-1142zM159 1260h-243q-36 0 -36 36v221q0 36 36 36h243q36 0 36 -36v-221q0 -36 -36 -36zM594 1260h-243q-36 0 -36 36v221q0 36 36 36h243q36 0 36 -36v-221q0 -36 -36 -36z" />
    <glyph glyph-name="eth" unicode="&#xf0;" horiz-adv-x="1185" 
d="M115 696v468q0 36 36 36h621q140 0 239 -79t99 -191v-660q0 -112 -99 -191t-239 -79h-621q-36 0 -36 36v468h-45q-30 0 -30 30v132q0 30 30 30h45zM475 696h45q30 0 30 -30v-132q0 -30 -30 -30h-45v-240q0 -24 24 -24h181q70 0 70 56v608q0 56 -70 56h-181q-24 0 -24 -24
v-240z" />
    <glyph glyph-name="ntilde" unicode="&#xf1;" horiz-adv-x="1299" 
d="M864 485v679q0 36 36 36h289q35 0 35 -36v-1128q0 -36 -35 -36h-414q-36 0 -48 36l-292 684v-684q0 -36 -35 -36h-289q-36 0 -36 36v1128q0 36 36 36h416q36 0 48 -36zM1043 1498q-17 -47 -43.5 -89t-61.5 -76t-77 -53.5t-89 -19.5q-34 0 -66 15.5t-62.5 35t-61.5 35
t-60 15.5q-32 0 -63 -27t-43 -55q-7 -16 -21 -16q-6 0 -14 3l-110 39q-19 8 -19 22q0 4 2 9q8 37 31.5 79t56.5 77t74 57.5t86 22.5q37 0 73 -15.5t70.5 -35t66.5 -35t56 -15.5q39 0 65.5 27t43.5 55q7 18 21 18q5 0 12 -3l116 -35q21 -5 21 -20q0 -7 -4 -15z" />
    <glyph glyph-name="ograve" unicode="&#xf2;" 
d="M1061 270q0 -112 -99 -191t-239 -79h-310q-140 0 -239 79t-99 191v660q0 112 99 191t239 79h310q140 0 239 -79t99 -191v-660zM435 330q0 -90 90 -90h86q90 0 90 90v540q0 90 -90 90h-86q-90 0 -90 -90v-540zM727 1321q16 -22 16 -37q0 -4 -1 -8q-7 -16 -40 -16h-120
q-27 0 -46.5 15t-33.5 30l-260 248q-25 24 -25 41q0 3 1 6q5 18 52 18h211q27 0 40.5 -13.5t29.5 -35.5z" />
    <glyph glyph-name="oacute" unicode="&#xf3;" 
d="M1061 270q0 -112 -99 -191t-239 -79h-310q-140 0 -239 79t-99 191v660q0 112 99 191t239 79h310q140 0 239 -79t99 -191v-660zM435 330q0 -90 90 -90h86q90 0 90 90v540q0 90 -90 90h-86q-90 0 -90 -90v-540zM634 1305q-15 -15 -34 -30t-46 -15h-121q-33 0 -39 16
q-1 4 -1 8q0 15 15 37l177 248q16 22 29.5 35.5t39.5 13.5h211q47 0 53 -18v-7q0 -16 -24 -40z" />
    <glyph glyph-name="ocircumflex" unicode="&#xf4;" 
d="M1061 270q0 -112 -99 -191t-239 -79h-310q-140 0 -239 79t-99 191v660q0 112 99 191t239 79h310q140 0 239 -79t99 -191v-660zM435 330q0 -90 90 -90h86q90 0 90 90v540q0 90 -90 90h-86q-90 0 -90 -90v-540zM883 1323q17 -20 17 -39v-3q-2 -21 -43 -21h-123q-23 0 -34 5
t-26 25l-106 138l-107 -138q-16 -22 -28.5 -26t-28.5 -4h-125q-41 0 -43 21v4q0 18 16 38l195 246q12 16 26.5 32.5t34.5 16.5h111q27 0 42 -16.5t28 -32.5z" />
    <glyph glyph-name="otilde" unicode="&#xf5;" 
d="M1061 270q0 -112 -99 -191t-239 -79h-310q-140 0 -239 79t-99 191v660q0 112 99 191t239 79h310q140 0 239 -79t99 -191v-660zM435 330q0 -90 90 -90h86q90 0 90 90v540q0 90 -90 90h-86q-90 0 -90 -90v-540zM962 1498q-17 -47 -43.5 -89t-61.5 -76t-77 -53.5t-89 -19.5
q-34 0 -66 15.5t-62.5 35t-61.5 35t-60 15.5q-32 0 -63 -27t-43 -55q-7 -16 -21 -16q-6 0 -14 3l-110 39q-19 8 -19 22q0 4 2 9q8 37 31.5 79t56.5 77t74 57.5t86 22.5q37 0 73 -15.5t70.5 -35t66.5 -35t56 -15.5q39 0 65.5 27t43.5 55q7 18 21 18q5 0 12 -3l116 -35
q21 -5 21 -20q0 -7 -4 -15z" />
    <glyph glyph-name="odieresis" unicode="&#xf6;" 
d="M1061 270q0 -112 -99 -191t-239 -79h-310q-140 0 -239 79t-99 191v660q0 112 99 191t239 79h310q140 0 239 -79t99 -191v-660zM435 330q0 -90 90 -90h86q90 0 90 90v540q0 90 -90 90h-86q-90 0 -90 -90v-540zM472 1260h-243q-36 0 -36 36v221q0 36 36 36h243q36 0 36 -36
v-221q0 -36 -36 -36zM907 1260h-243q-36 0 -36 36v221q0 36 36 36h243q36 0 36 -36v-221q0 -36 -36 -36z" />
    <glyph glyph-name="divide" unicode="&#xf7;" horiz-adv-x="1150" 
d="M105 580q-30 0 -30 30v180q0 30 30 30h940q30 0 30 -30v-180q0 -30 -30 -30h-940zM431 1240h288q36 0 36 -36v-168q0 -36 -36 -36h-288q-36 0 -36 36v168q0 36 36 36zM431 400h288q36 0 36 -36v-168q0 -36 -36 -36h-288q-36 0 -36 36v168q0 36 36 36z" />
    <glyph glyph-name="oslash" unicode="&#xf8;" horiz-adv-x="1143" 
d="M162 94q-82 75 -82 176v660q0 112 99 191t239 79h310q55 0 104 -12l39 63q17 29 53 29h129q24 0 24 -13q0 -7 -6 -16l-88 -144q83 -75 83 -177v-660q0 -112 -99 -191t-239 -79h-310q-56 0 -106 13l-39 -64q-18 -29 -53 -29h-129q-24 0 -24 13q0 6 6 16zM706 655
l-244 -397q23 -18 68 -18h86q90 0 90 90v325zM440 548l242 395q-22 17 -66 17h-86q-90 0 -90 -90v-322z" />
    <glyph glyph-name="ugrave" unicode="&#xf9;" 
d="M435 1164v-844q0 -80 90 -80h86q90 0 90 80v844q0 36 36 36h288q36 0 36 -36v-894q0 -112 -99 -191t-239 -79h-305q-145 0 -244 79t-99 191v894q0 36 36 36h288q36 0 36 -36zM727 1321q16 -22 16 -37q0 -4 -1 -8q-7 -16 -40 -16h-120q-27 0 -46.5 15t-33.5 30l-260 248
q-25 24 -25 41q0 3 1 6q5 18 52 18h211q27 0 40.5 -13.5t29.5 -35.5z" />
    <glyph glyph-name="uacute" unicode="&#xfa;" 
d="M435 1164v-844q0 -80 90 -80h86q90 0 90 80v844q0 36 36 36h288q36 0 36 -36v-894q0 -112 -99 -191t-239 -79h-305q-145 0 -244 79t-99 191v894q0 36 36 36h288q36 0 36 -36zM634 1305q-15 -15 -34 -30t-46 -15h-121q-33 0 -39 16q-1 4 -1 8q0 15 15 37l177 248
q16 22 29.5 35.5t39.5 13.5h211q47 0 53 -18v-7q0 -16 -24 -40z" />
    <glyph glyph-name="ucircumflex" unicode="&#xfb;" 
d="M435 1164v-844q0 -80 90 -80h86q90 0 90 80v844q0 36 36 36h288q36 0 36 -36v-894q0 -112 -99 -191t-239 -79h-305q-145 0 -244 79t-99 191v894q0 36 36 36h288q36 0 36 -36zM883 1323q17 -20 17 -39v-3q-2 -21 -43 -21h-123q-23 0 -34 5t-26 25l-106 138l-107 -138
q-16 -22 -28.5 -26t-28.5 -4h-125q-41 0 -43 21v4q0 18 16 38l195 246q12 16 26.5 32.5t34.5 16.5h111q27 0 42 -16.5t28 -32.5z" />
    <glyph glyph-name="udieresis" unicode="&#xfc;" 
d="M435 1164v-844q0 -80 90 -80h86q90 0 90 80v844q0 36 36 36h288q36 0 36 -36v-894q0 -112 -99 -191t-239 -79h-305q-145 0 -244 79t-99 191v894q0 36 36 36h288q36 0 36 -36zM472 1260h-243q-36 0 -36 36v221q0 36 36 36h243q36 0 36 -36v-221q0 -36 -36 -36zM907 1260
h-243q-36 0 -36 36v221q0 36 36 36h243q36 0 36 -36v-221q0 -36 -36 -36z" />
    <glyph glyph-name="yacute" unicode="&#xfd;" horiz-adv-x="1364" 
d="M862 534v-498q0 -36 -35 -36h-289q-36 0 -36 36v498l-454 630q-8 13 -8 22q0 14 23 14h334q36 0 56 -36l229 -314l229 314q20 36 56 36h334q23 0 23 -14q0 -9 -8 -22zM748 1305q-15 -15 -34 -30t-46 -15h-121q-33 0 -39 16q-1 4 -1 8q0 15 15 37l177 248q16 22 29.5 35.5
t39.5 13.5h211q47 0 53 -18v-7q0 -16 -24 -40z" />
    <glyph glyph-name="thorn" unicode="&#xfe;" horiz-adv-x="1125" 
d="M435 1024q0 -24 24 -24h253q140 0 239 -79t99 -191v-260q0 -112 -99 -191t-239 -79h-253q-24 0 -24 -24v-140q0 -36 -36 -36h-288q-36 0 -36 36v1128q0 36 36 36h288q36 0 36 -36v-140zM435 456q0 -24 24 -24h161q70 0 70 56v228q0 56 -70 56h-161q-24 0 -24 -24v-292z
" />
    <glyph glyph-name="ydieresis" unicode="&#xff;" horiz-adv-x="1364" 
d="M862 534v-498q0 -36 -35 -36h-289q-36 0 -36 36v498l-454 630q-8 13 -8 22q0 14 23 14h334q36 0 56 -36l229 -314l229 314q20 36 56 36h334q23 0 23 -14q0 -9 -8 -22zM586 1260h-243q-36 0 -36 36v221q0 36 36 36h243q36 0 36 -36v-221q0 -36 -36 -36zM1021 1260h-243
q-36 0 -36 36v221q0 36 36 36h243q36 0 36 -36v-221q0 -36 -36 -36z" />
    <glyph glyph-name="dotlessi" unicode="&#x131;" horiz-adv-x="510" 
d="M435 29q0 -29 -35 -29h-289q-36 0 -36 29v1142q0 29 36 29h289q35 0 35 -29v-1142z" />
    <glyph glyph-name="OE" unicode="&#x152;" horiz-adv-x="1701" 
d="M435 390q0 -90 90 -90h86q90 0 90 90v720q0 90 -90 90h-86q-90 0 -90 -90v-720zM881 38q-71 -38 -158 -38h-310q-140 0 -239 99t-99 239v824q0 140 99 239t239 99h1152q36 0 36 -36v-228q0 -36 -36 -36h-480q-24 0 -24 -24v-252q0 -24 24 -24h400q36 0 36 -36v-228
q0 -36 -36 -36h-400q-24 0 -24 -24v-146q0 -130 130 -130h399q36 0 36 -36v-228q0 -36 -36 -36h-551q-87 0 -158 38z" />
    <glyph glyph-name="oe" unicode="&#x153;" horiz-adv-x="1701" 
d="M435 320q0 -80 90 -80h86q90 0 90 80v560q0 80 -90 80h-86q-90 0 -90 -80v-560zM881 30q-71 -30 -158 -30h-310q-140 0 -239 79t-99 191v660q0 112 99 191t239 79h1152q36 0 36 -36v-168q0 -36 -36 -36h-480q-24 0 -24 -24v-192q0 -24 24 -24h400q36 0 36 -36v-168
q0 -36 -36 -36h-400q-24 0 -24 -24v-112q0 -104 130 -104h399q36 0 36 -36v-168q0 -36 -36 -36h-551q-87 0 -158 30z" />
    <glyph glyph-name="circumflex" unicode="&#x2c6;" horiz-adv-x="664" 
d="M647 1323q17 -20 17 -39v-3q-2 -21 -43 -21h-123q-23 0 -34 5t-26 25l-106 138l-107 -138q-16 -22 -28.5 -26t-28.5 -4h-125q-41 0 -43 21v4q0 18 16 38l195 246q12 16 26.5 32.5t34.5 16.5h111q27 0 42 -16.5t28 -32.5z" />
    <glyph glyph-name="caron" unicode="&#x2c7;" horiz-adv-x="950" 
 />
    <glyph glyph-name="uni02C9" unicode="&#x2c9;" horiz-adv-x="1160" 
 />
    <glyph glyph-name="breve" unicode="&#x2d8;" 
 />
    <glyph glyph-name="dotaccent" unicode="&#x2d9;" horiz-adv-x="1024" 
 />
    <glyph glyph-name="ring" unicode="&#x2da;" horiz-adv-x="549" 
d="M549 1466q0 -55 -22.5 -103.5t-59.5 -85t-87 -57t-106 -20.5q-55 0 -105 20.5t-87 57t-59.5 85t-22.5 103.5t22.5 103.5t59.5 85t87 57t105 20.5q56 0 106 -20.5t87 -57t59.5 -85t22.5 -103.5zM389 1466q0 47 -32.5 85t-82.5 38q-49 0 -81.5 -38t-32.5 -85t32.5 -85
t81.5 -38q50 0 82.5 38t32.5 85z" />
    <glyph glyph-name="ogonek" unicode="&#x2db;" horiz-adv-x="1024" 
 />
    <glyph glyph-name="tilde" unicode="&#x2dc;" horiz-adv-x="795" 
d="M791 1498q-17 -47 -43.5 -89t-61.5 -76t-77 -53.5t-89 -19.5q-34 0 -66 15.5t-62.5 35t-61.5 35t-60 15.5q-32 0 -63 -27t-43 -55q-7 -16 -21 -16q-6 0 -14 3l-110 39q-19 8 -19 22q0 4 2 9q8 37 31.5 79t56.5 77t74 57.5t86 22.5q37 0 73 -15.5t70.5 -35t66.5 -35
t56 -15.5q39 0 65.5 27t43.5 55q7 18 21 18q5 0 12 -3l116 -35q21 -5 21 -20q0 -7 -4 -15z" />
    <glyph glyph-name="hungarumlaut" unicode="&#x2dd;" horiz-adv-x="1024" 
 />
    <glyph glyph-name="endash" unicode="&#x2013;" horiz-adv-x="1530" 
d="M105 630q-30 0 -30 30v180q0 30 30 30h1320q30 0 30 -30v-180q0 -30 -30 -30h-1320z" />
    <glyph glyph-name="emdash" unicode="&#x2014;" horiz-adv-x="2310" 
d="M105 630q-30 0 -30 30v180q0 30 30 30h2100q30 0 30 -30v-180q0 -30 -30 -30h-2100z" />
    <glyph glyph-name="quoteleft" unicode="&#x2018;" horiz-adv-x="547" 
d="M63 1036q23 76 46.5 133.5t59.5 106.5t92 97t144 110q31 17 53 17q18 0 30 -10q19 -17 19 -48q0 -14 -4 -31q-49 -183 -76 -366q-4 -38 -14 -53t-41 -15h-259q-29 0 -43 15q-10 10 -10 25q0 9 3 19z" />
    <glyph glyph-name="quoteright" unicode="&#x2019;" horiz-adv-x="552" 
d="M503 1440q-22 -75 -45.5 -132.5t-59.5 -106.5t-92.5 -97.5t-144.5 -109.5q-31 -17 -53 -17q-17 0 -29 11q-20 17 -20 48q0 14 4 30q50 183 76 366q4 38 14.5 53t40.5 15h259q30 0 45 -15q8 -9 8 -24q0 -10 -3 -21z" />
    <glyph glyph-name="quotesinglbase" unicode="&#x201a;" horiz-adv-x="552" 
d="M503 240q-22 -75 -45.5 -132.5t-59.5 -106.5t-92.5 -97.5t-144.5 -109.5q-31 -17 -53 -17q-17 0 -29 11q-20 17 -20 48q0 14 4 30q50 183 76 366q4 38 14.5 53t40.5 15h259q30 0 45 -15q8 -9 8 -24q0 -10 -3 -21z" />
    <glyph glyph-name="quotedblleft" unicode="&#x201c;" horiz-adv-x="995" 
d="M502 1036q23 76 46.5 133.5t59.5 106.5t92 97t144 110q31 17 53 17q18 0 30 -10q19 -17 19 -48q0 -14 -4 -31q-49 -183 -76 -366q-4 -38 -14 -53t-41 -15h-259q-29 0 -43 15q-10 10 -10 25q0 9 3 19zM62 1036q23 76 46.5 133.5t59.5 106.5t92 97t144 110q31 17 53 17
q18 0 30 -10q19 -17 19 -48q0 -14 -4 -31q-49 -183 -76 -366q-4 -38 -14 -53t-41 -15h-259q-29 0 -43 15q-10 10 -10 25q0 9 3 19z" />
    <glyph glyph-name="quotedblright" unicode="&#x201d;" horiz-adv-x="992" 
d="M503 1440q-22 -75 -45.5 -132.5t-59.5 -106.5t-92.5 -97.5t-144.5 -109.5q-31 -17 -53 -17q-17 0 -29 11q-20 17 -20 48q0 14 4 30q50 183 76 366q4 38 14.5 53t40.5 15h259q30 0 45 -15q8 -9 8 -24q0 -10 -3 -21zM943 1440q-22 -75 -45.5 -132.5t-59.5 -106.5
t-92.5 -97.5t-144.5 -109.5q-31 -17 -53 -17q-17 0 -29 11q-20 17 -20 48q0 14 4 30q50 183 76 366q4 38 14.5 53t40.5 15h259q30 0 45 -15q8 -9 8 -24q0 -10 -3 -21z" />
    <glyph glyph-name="quotedblbase" unicode="&#x201e;" horiz-adv-x="992" 
d="M503 240q-22 -75 -45.5 -132.5t-59.5 -106.5t-92.5 -97.5t-144.5 -109.5q-31 -17 -53 -17q-17 0 -29 11q-20 17 -20 48q0 14 4 30q50 183 76 366q4 38 14.5 53t40.5 15h259q30 0 45 -15q8 -9 8 -24q0 -10 -3 -21zM943 240q-22 -75 -45.5 -132.5t-59.5 -106.5t-92.5 -97.5
t-144.5 -109.5q-31 -17 -53 -17q-17 0 -29 11q-20 17 -20 48q0 14 4 30q50 183 76 366q4 38 14.5 53t40.5 15h259q30 0 45 -15q8 -9 8 -24q0 -10 -3 -21z" />
    <glyph glyph-name="dagger" unicode="&#x2020;" horiz-adv-x="1014" 
 />
    <glyph glyph-name="daggerdbl" unicode="&#x2021;" horiz-adv-x="1014" 
 />
    <glyph glyph-name="bullet" unicode="&#x2022;" horiz-adv-x="1024" 
 />
    <glyph glyph-name="ellipsis" unicode="&#x2026;" horiz-adv-x="1407" 
d="M354 0h-243q-36 0 -36 36v221q0 36 36 36h243q36 0 36 -36v-221q0 -36 -36 -36zM825 0h-243q-36 0 -36 36v221q0 36 36 36h243q36 0 36 -36v-221q0 -36 -36 -36zM1296 0h-243q-36 0 -36 36v221q0 36 36 36h243q36 0 36 -36v-221q0 -36 -36 -36z" />
    <glyph glyph-name="guilsinglleft" unicode="&#x2039;" horiz-adv-x="681" 
d="M359 750l236 -325q11 -16 11 -28q0 -16 -20 -26l-154 -85q-14 -8 -26 -8q-22 0 -40 23l-306 449l306 449q18 23 40 23q12 0 26 -8l154 -85q20 -10 20 -26q0 -12 -11 -28z" />
    <glyph glyph-name="guilsinglright" unicode="&#x203a;" horiz-adv-x="666" 
d="M71 1075q-11 16 -11 28q0 16 20 26l154 85q14 8 26 8q22 0 40 -23l306 -449l-306 -449q-18 -23 -40 -23q-12 0 -26 8l-154 85q-20 10 -20 26q0 12 11 28l236 325z" />
    <glyph glyph-name="fraction" unicode="&#x2044;" horiz-adv-x="1143" 
d="M273 -64q-18 -36 -53 -36h-129q-24 0 -24 16q0 8 6 20l89 181l278 568l242 494l150 306l39 79q17 36 53 36h129q24 0 24 -16q0 -8 -6 -20l-88 -180l-277 -565l-244 -496l-150 -307z" />
    <glyph glyph-name="fraction" unicode="&#x2215;" horiz-adv-x="1143" 
d="M273 -64q-18 -36 -53 -36h-129q-24 0 -24 16q0 8 6 20l89 181l278 568l242 494l150 306l39 79q17 36 53 36h129q24 0 24 -16q0 -8 -6 -20l-88 -180l-277 -565l-244 -496l-150 -307z" />
    <glyph glyph-name="Euro" unicode="&#x20ac;" horiz-adv-x="1195" 
d="M555 460v-30q0 -130 130 -130h399q36 0 36 -36v-228q0 -36 -36 -36h-551q-140 0 -239 99t-99 239v122h-90q-30 0 -30 30v180q0 30 30 30h90v100h-90q-30 0 -30 30v180q0 30 30 30h90v122q0 140 99 239t239 99h551q36 0 36 -36v-228q0 -36 -36 -36h-399q-130 0 -130 -130
v-30h210q30 0 30 -30v-180q0 -30 -30 -30h-210v-100h210q30 0 30 -30v-180q0 -30 -30 -30h-210z" />
    <glyph glyph-name="afii61352" unicode="&#x2116;" horiz-adv-x="2271" 
 />
    <glyph glyph-name="trademark" unicode="&#x2122;" horiz-adv-x="1497" 
 />
    <glyph glyph-name="partialdiff" unicode="&#x2202;" horiz-adv-x="1014" 
 />
    <glyph glyph-name="Delta" unicode="&#x2206;" horiz-adv-x="1081" 
 />
    <glyph glyph-name="product" unicode="&#x220f;" horiz-adv-x="1515" 
 />
    <glyph glyph-name="summation" unicode="&#x2211;" horiz-adv-x="1206" 
 />
    <glyph glyph-name="minus" unicode="&#x2212;" horiz-adv-x="1150" 
d="M105 630q-30 0 -30 30v180q0 30 30 30h940q30 0 30 -30v-180q0 -30 -30 -30h-940z" />
    <glyph glyph-name="radical" unicode="&#x221a;" horiz-adv-x="1014" 
 />
    <glyph glyph-name="infinity" unicode="&#x221e;" horiz-adv-x="1014" 
 />
    <glyph glyph-name="integral" unicode="&#x222b;" horiz-adv-x="665" 
 />
    <glyph glyph-name="approxequal" unicode="&#x2248;" horiz-adv-x="1229" 
 />
    <glyph glyph-name="lessequal" unicode="&#x2264;" horiz-adv-x="1006" 
d="M145 871q0 47 16.5 62.5t51.5 29.5l704 279q33 14 55 14h6q23 -2 23 -47v-149q0 -47 -22.5 -62.5t-63.5 -27.5l-405 -162l405 -162q41 -12 63.5 -27.5t22.5 -62.5v-149q0 -45 -23 -47h-6q-22 0 -55 14l-704 279q-35 14 -51.5 29.5t-16.5 62.5v126zM105 0q-30 0 -30 30
v180q0 30 30 30h940q30 0 30 -30v-180q0 -30 -30 -30h-940z" />
    <glyph glyph-name="greaterequal" unicode="&#x2265;" horiz-adv-x="1006" 
d="M1021 745q0 -47 -16.5 -62.5t-51.5 -29.5l-704 -279q-33 -14 -55 -14h-5q-24 2 -24 47v149q0 47 22.5 62.5t63.5 27.5l405 162l-405 162q-41 12 -63.5 27.5t-22.5 62.5v149q0 45 24 47h5q22 0 55 -14l704 -279q35 -14 51.5 -29.5t16.5 -62.5v-126zM105 0q-30 0 -30 30
v180q0 30 30 30h940q30 0 30 -30v-180q0 -30 -30 -30h-940z" />
    <glyph glyph-name="uniF001" unicode="&#xf001;" horiz-adv-x="1073" 
 />
    <glyph glyph-name="uniF001" unicode="&#xfb01;" horiz-adv-x="1073" 
 />
    <glyph glyph-name="uniF002" unicode="&#xf002;" horiz-adv-x="1081" 
 />
    <glyph glyph-name="uniF002" unicode="&#xfb02;" horiz-adv-x="1081" 
 />
    </font>
</defs>
</svg>
